<?xml version="1.0" encoding="UTF-8"?>
<svg xmlns="http://www.w3.org/2000/svg" xmlns:xlink="http://www.w3.org/1999/xlink" width="500pt" height="500pt" viewBox="0 0 500 500" version="1.1">
<g id="surface1">
<path style=" stroke:none;fill-rule:nonzero;fill:#78A0CF;fill-opacity:1;" d="M 75 145 C 75 150.523438 70.523438 155 65 155 C 59.476563 155 55 150.523438 55 145 C 55 139.476563 59.476563 135 65 135 C 70.523438 135 75 139.476563 75 145 Z "/>
<path style=" stroke:none;fill-rule:nonzero;fill:#F1BC19;fill-opacity:1;" d="M 390 65 C 390 67.761719 387.761719 70 385 70 C 382.238281 70 380 67.761719 380 65 C 380 62.238281 382.238281 60 385 60 C 387.761719 60 390 62.238281 390 65 Z "/>
<path style=" stroke:none;fill-rule:nonzero;fill:#CEE1F4;fill-opacity:1;" d="M 435 250 C 435 352.171875 352.171875 435 250 435 C 147.828125 435 65 352.171875 65 250 C 65 147.828125 147.828125 65 250 65 C 352.171875 65 435 147.828125 435 250 Z "/>
<path style=" stroke:none;fill-rule:nonzero;fill:#F1BC19;fill-opacity:1;" d="M 435 75 C 435 86.046875 426.046875 95 415 95 C 403.953125 95 395 86.046875 395 75 C 395 63.953125 403.953125 55 415 55 C 426.046875 55 435 63.953125 435 75 Z "/>
<path style=" stroke:none;fill-rule:nonzero;fill:#78A0CF;fill-opacity:1;" d="M 445 120 C 445 125.523438 440.523438 130 435 130 C 429.476563 130 425 125.523438 425 120 C 425 114.476563 429.476563 110 435 110 C 440.523438 110 445 114.476563 445 120 Z "/>
<path style=" stroke:none;fill-rule:nonzero;fill:#FBCD59;fill-opacity:1;" d="M 415 380 C 415 385.523438 410.523438 390 405 390 C 399.476563 390 395 385.523438 395 380 C 395 374.476563 399.476563 370 405 370 C 410.523438 370 415 374.476563 415 380 Z "/>
<path style=" stroke:none;fill-rule:nonzero;fill:#FBCD59;fill-opacity:1;" d="M 95 315 C 95 326.046875 86.046875 335 75 335 C 63.953125 335 55 326.046875 55 315 C 55 303.953125 63.953125 295 75 295 C 86.046875 295 95 303.953125 95 315 Z "/>
<path style=" stroke:none;fill-rule:nonzero;fill:#78A0CF;fill-opacity:1;" d="M 135 435 C 135 440.523438 130.523438 445 125 445 C 119.476563 445 115 440.523438 115 435 C 115 429.476563 119.476563 425 125 425 C 130.523438 425 135 429.476563 135 435 Z "/>
<path style=" stroke:none;fill-rule:nonzero;fill:#FFFFFF;fill-opacity:1;" d="M 105 267.5 C 105 274.402344 99.402344 280 92.5 280 C 85.597656 280 80 274.402344 80 267.5 C 80 260.597656 85.597656 255 92.5 255 C 99.402344 255 105 260.597656 105 267.5 Z "/>
<path style=" stroke:none;fill-rule:nonzero;fill:#F1BC19;fill-opacity:1;" d="M 110 335 C 110 337.761719 107.761719 340 105 340 C 102.238281 340 100 337.761719 100 335 C 100 332.238281 102.238281 330 105 330 C 107.761719 330 110 332.238281 110 335 Z "/>
<path style=" stroke:none;fill-rule:nonzero;fill:#FFFFFF;fill-opacity:1;" d="M 405 170 C 405 172.761719 402.761719 175 400 175 C 397.238281 175 395 172.761719 395 170 C 395 167.238281 397.238281 165 400 165 C 402.761719 165 405 167.238281 405 170 Z "/>
<path style=" stroke:none;fill-rule:nonzero;fill:#BABCE2;fill-opacity:1;" d="M 175 361.5 C 155 361.5 138.5 345 138.5 325 L 138.5 175 C 138.5 155 155 138.5 175 138.5 L 325 138.5 C 345 138.5 361.5 155 361.5 175 L 361.5 325 C 361.5 345 345 361.5 325 361.5 Z "/>
<path style=" stroke:none;fill-rule:nonzero;fill:#472B29;fill-opacity:1;" d="M 325 142 C 343 142 358 157 358 175 L 358 325 C 358 343 343 358 325 358 L 175 358 C 157 358 142 343 142 325 L 142 175 C 142 157 157 142 175 142 L 325 142 M 325 135 L 175 135 C 153 135 135 153 135 175 L 135 325 C 135 347 153 365 175 365 L 325 365 C 347 365 365 347 365 325 L 365 175 C 365 153 347 135 325 135 Z "/>
<path style=" stroke:none;fill-rule:nonzero;fill:#FDFCEE;fill-opacity:1;" d="M 342.5 239.5 L 342.5 320 C 342.5 332.5 332.5 342.5 320 342.5 L 180 342.5 C 167.5 342.5 157.5 332.5 157.5 320 L 157.5 180 C 157.5 167.5 167.5 157.5 180 157.5 L 320 157.5 C 332.5 157.5 342.5 167.5 342.5 180 L 342.5 239.5 "/>
<path style=" stroke:none;fill-rule:nonzero;fill:#472B29;fill-opacity:1;" d="M 342.5 237 C 341 237 340 236 340 234.5 L 340 215 C 340 213.5 341 212.5 342.5 212.5 C 344 212.5 345 213.5 345 215 L 345 234.5 C 345 236 344 237 342.5 237 Z "/>
<path style=" stroke:none;fill-rule:nonzero;fill:#472B29;fill-opacity:1;" d="M 342.5 202.5 C 341 202.5 340 201.5 340 200 L 340 190 C 340 188.5 341 187.5 342.5 187.5 C 344 187.5 345 188.5 345 190 L 345 200 C 345 201.5 344 202.5 342.5 202.5 Z "/>
<path style=" stroke:none;fill-rule:nonzero;fill:#472B29;fill-opacity:1;" d="M 320 345 L 180 345 C 166 345 155 334 155 320 L 155 180 C 155 166 166 155 180 155 L 307 155 C 308.5 155 309.5 156 309.5 157.5 C 309.5 159 308.5 160 307 160 L 180 160 C 169 160 160 169 160 180 L 160 320 C 160 331 169 340 180 340 L 320 340 C 331 340 340 331 340 320 L 340 248 C 340 246.5 341 245.5 342.5 245.5 C 344 245.5 345 246.5 345 248 L 345 320 C 345 334 334 345 320 345 Z "/>
<path style=" stroke:none;fill-rule:nonzero;fill:#BCBCE2;fill-opacity:1;" d="M 300.5 249 C 300.5 241.5 304.5 237 311 234 C 310.5 230 306 218.5 303.5 215.5 C 297 218.5 291 218 285.5 213 C 280 208 280 201.5 283 195 C 277.5 191.5 271 189 264.5 187.5 C 262.5 194 258 198 251.5 198.5 C 243.5 199 238.5 195 235.5 187.5 C 229 189 223 191.5 217 195 C 220 201.5 219.5 207.5 214.5 213 C 209.5 218.5 203 219 196.5 215.5 C 193 221 190.5 227.5 189 234 C 195.5 236.5 199.5 241 200 248 C 200 255.5 196 260 189.5 263 C 191 269.5 193.5 275.5 197 281 C 203.5 278 209.5 278.5 214.5 283.5 C 219.5 288.5 220.5 294.5 217.5 301 C 223 304.5 229.5 307 236 308.5 C 236 308.5 236 308 236 308 C 238.5 302 243.5 298 250 298 C 256.5 298 262 301.5 264.5 308 C 265 308.5 265 308.5 265.5 308.5 C 271.5 307 277 304.5 282 301.5 C 282.5 301.5 282.5 301 283 301 C 280.5 296 280.5 290 285 285 C 290 279 296.5 278 303.5 281 C 307 275.5 309.5 269.5 311 263 C 304.5 260.5 300.5 256 300.5 249 Z M 250 259.5 C 244 259.5 239.5 254.5 239.5 249 C 239.5 243 244.5 238.5 250.5 238.5 C 256.5 238.5 261 243.5 261 249.5 C 260.5 254.5 256 259.5 250 259.5 Z "/>
<path style=" stroke:none;fill-rule:nonzero;fill:#472B29;fill-opacity:1;" d="M 236 311.5 C 236 311.5 235.5 311 236 311.5 C 229 310 222.5 307.5 217 304 C 216 303.5 216 302.5 216.5 301.5 C 219 295.5 218.5 290 214 286 C 209.5 282 204.5 281 198.5 284 C 197.5 284.5 196.5 284 196 283.5 C 192.5 277.5 189.5 271.5 188 265 C 188 264 188.5 263 189 263 C 195.5 260.5 198.5 256 198.5 250 C 198.5 244 195 240 189 237.5 C 188 237 187.5 236.5 188 235.5 C 189.5 229 192 222.5 195.5 216.5 C 196 215.5 197 215.5 198 216 C 204.5 219 209.5 218 214 213.5 C 218.5 209 219 204 216 197.5 C 215.5 196.5 216 195.5 216.5 195 C 222 191.5 228.5 189 235.5 187 C 236.5 187 237.5 187.5 237.5 188 C 240 195 244.5 198 251.5 197.5 C 257 197 261 194 263 188 C 263.5 187 264 186.5 265 187 C 271.5 188.5 278 191 284 195 C 285 195.5 285 196.5 284.5 197.5 C 281.5 204 282.5 209 286.5 213.5 C 291 218 296 218.5 302.5 215.5 C 303 215 304 215.5 304.5 216 C 307 219 312 231 312.5 235.5 C 312.5 236.5 312 237 311.5 237.5 C 305 240 302 244.5 302 250.5 C 302 256.5 305 260.5 311.5 263 C 312.5 263.5 313 264 312.5 265 C 311 271.5 308.5 278 304.5 283.5 C 304 284.5 303 284.5 302 284 C 295.5 281 290 282 285.5 287.5 C 282 291.5 281.5 296.5 284 302 C 284.5 303 284 304 283.5 304.5 L 282.5 305 C 277 308 271.5 310.5 265.5 312 C 263.5 312.5 262.5 311.5 262 310.5 C 260 305 255 302 249.5 302 C 244 302 239.5 305.5 237.5 311 C 237.5 311 237.5 311.5 237.5 311.5 C 237.5 310.5 236.5 311.5 236 311.5 Z M 220 301 C 224.5 303.5 229.5 305.5 235 307 C 238 300.5 243.5 297 250 297 C 257 297 262.5 301 265.5 307 C 271 305.5 276 303.5 280.5 301 C 278 294.5 279 289 283 284 C 288 278 294.5 276.5 302 279 C 304.5 274.5 307 269.5 308 264 C 301.5 261 298 256 297.5 249 C 297.5 241.5 301 236 308 233 C 307 229 304 221.5 302 218 C 295 221 288.5 219.5 283.5 214.5 C 278.5 209.5 277 203 280 196 C 275.5 193.5 270.5 191 265 190 C 262.5 196.5 257.5 200 251 200.5 C 243 201 237 197.5 234 190 C 228.5 191.5 223.5 193.5 219 196 C 222 203 220.5 209.5 215.5 214.5 C 210.5 219.5 204 221 197 218 C 194.5 222.5 192.5 227.5 191 233 C 197.5 236 201.5 241 201.5 248 C 201.5 255.5 198 260.5 191 264 C 192.5 269 194.5 274 197.5 279 C 204.5 276.5 210.5 277.5 215.5 282.5 C 221 288 222.5 294 220 301 Z M 250 261 C 246.5 261 243.5 259.5 241 257.5 C 238.5 255 237.5 252 237.5 248.5 C 237.5 245 239 242 241 239.5 C 243.5 237 246.5 236 250 236 C 253.5 236 256.5 237.5 259 240 C 261.5 242.5 262.5 245.5 262.5 249 C 262.5 256 257 261 250 261 Z M 250 240 C 247.5 240 245.5 241 243.5 242.5 C 242 244 241 246.5 241 248.5 C 241 250.5 242 253 243.5 255 C 245 256.5 247.5 257.5 250 257.5 C 255 257.5 258.5 253.5 259 249 C 259 246.5 258 244.5 256.5 242.5 C 255 241 252.5 240 250 240 C 250.5 240 250.5 240 250 240 Z "/>
<path style=" stroke:none;fill-rule:nonzero;fill:#7878AA;fill-opacity:1;" d="M 289 239.5 C 283.5 218.5 262 206 241 211 C 220 216.5 207 237.5 212.5 258.5 C 218 279.5 239.5 292 260.5 287 C 281.5 281.5 294.5 260.5 289 239.5 Z M 258.5 279.5 C 241.5 284 224.5 273.5 220 257 C 215.5 240 226 223 243 219 C 260 215 276.5 225.5 281 242 C 285 258.5 275 275 258.5 279.5 Z "/>
<path style=" stroke:none;fill-rule:nonzero;fill:#472B29;fill-opacity:1;" d="M 250.5 282 C 236 282 223 272 219 257.5 C 217 249 218 240.5 222.5 233 C 227 225.5 234 220.5 242.5 218 C 251 216 259.5 217 267 221.5 C 274.5 226 279.5 233 282 241.5 C 286.5 259 276 276.5 258.5 281 C 255.5 281.5 253 282 250.5 282 Z M 258 279.5 Z M 250.5 219.5 C 248 219.5 245.5 220 243 220.5 C 235.5 222.5 229 227.5 224.5 234 C 220 240.5 219.5 249 221 256.5 C 225 272.5 241.5 282 257 278 C 273 274 282.5 257.5 278.5 242 C 276.5 234.5 271.5 228 265 223.5 C 261 221 255.5 219.5 250.5 219.5 Z "/>
<path style=" stroke:none;fill-rule:nonzero;fill:#472B29;fill-opacity:1;" d="M 213 237 C 213 237 212.5 236.5 213 237 C 212 236.5 211.5 236 212 235 C 216.5 222 227.5 212.5 240.5 209 C 241 209 242 209 242 210 C 242 211 242 211.5 241 211.5 C 228.5 214.5 218.5 223.5 214.5 235.5 C 214 236.5 213.5 237 213 237 Z "/>
<path style=" stroke:none;fill-rule:nonzero;fill:#472B29;fill-opacity:1;" d="M 251 289 C 247 289 242.5 288.5 238.5 287 C 224.5 283 214 272 210.5 258.5 C 210.5 258 210.5 257 211.5 257 C 212 257 213 257 213 258 C 216 270.5 226 280.5 239.5 284.5 C 253 288.5 266.5 285.5 276.5 276.5 C 277 276 278 276 278.5 276.5 C 279 277 279 278 278.5 278.5 C 271 285.5 261 289 251 289 Z "/>
<path style=" stroke:none;fill-rule:nonzero;fill:#A2A2CC;fill-opacity:1;" d="M 285 268 C 284 269.5 283.5 271 282.5 272.5 "/>
<path style=" stroke:none;fill-rule:nonzero;fill:#472B29;fill-opacity:1;" d="M 282.5 273.5 C 282 273.5 282 273.5 281.5 273.5 C 281 273 281 272.5 281 271.5 C 282 270 283 269 283.5 267.5 C 284 267 284.5 266.5 285.5 267 C 286 267.5 286.5 268 286 269 C 285 270.5 284 272 283 273.5 C 283 273.5 282.5 273.5 282.5 273.5 Z "/>
<path style=" stroke:none;fill-rule:nonzero;fill:#A2A2CC;fill-opacity:1;" d="M 289 257.5 C 288.5 260 287.5 262 286.5 264.5 "/>
<path style=" stroke:none;fill-rule:nonzero;fill:#472B29;fill-opacity:1;" d="M 286.5 266 C 286.5 266 286 266 286 266 C 285.5 265.5 285 265 285.5 264.5 C 286.5 262.5 287 260 287.5 258 C 287.5 257.5 288.5 257 289 257 C 289.5 257 290 258 290 258.5 C 289.5 261 288.5 263.5 287.5 265.5 C 287.5 265.5 287 266 286.5 266 Z "/>
<path style=" stroke:none;fill-rule:nonzero;fill:#472B29;fill-opacity:1;" d="M 288.5 240.5 C 288 240.5 287.5 240 287 239.5 C 284 227 274.5 217 262.5 212.5 C 262 212.5 261.5 211.5 261.5 211 C 261.5 210.5 262.5 210 263 210 C 276 214.5 286 225 289 238.5 C 290 239.5 289.5 240 288.5 240.5 C 289 240.5 289 240.5 288.5 240.5 Z "/>
<path style=" stroke:none;fill-rule:nonzero;fill:#472B29;fill-opacity:1;" d="M 264.5 221.5 C 264 221.5 264 221.5 264 221 C 264 220.5 264 220.5 264.5 220 L 275 217.5 C 275.5 217.5 275.5 217.5 276 218 C 276 218.5 276 218.5 275.5 219 Z "/>
<path style=" stroke:none;fill-rule:nonzero;fill:#472B29;fill-opacity:1;" d="M 273.5 227.5 C 273 227.5 273 227.5 273 227 C 273 226.5 273 226.5 273.5 226 L 281.5 224.5 C 282 224.5 282 224.5 282.5 225 C 283 225.5 282.5 225.5 282 226 Z "/>
<path style=" stroke:none;fill-rule:nonzero;fill:#472B29;fill-opacity:1;" d="M 278.5 235.5 C 278 235.5 278 235.5 278 235 C 278 234.5 278 234.5 278.5 234.5 L 286.5 233.5 C 287 233.5 287 233.5 287 234 C 287 234.5 287 234.5 286.5 234.5 Z "/>
<path style=" stroke:none;fill-rule:nonzero;fill:#472B29;fill-opacity:1;" d="M 236 220.5 C 235.5 220.5 235.5 220.5 235.5 220 L 234.5 212.5 C 234.5 212 234.5 212 235 212 C 235.5 212 235.5 212 235.5 212.5 L 236.5 220 C 236.5 220.5 236.5 220.5 236 220.5 Z "/>
<path style=" stroke:none;fill-rule:nonzero;fill:#472B29;fill-opacity:1;" d="M 230 225.5 C 229.5 225.5 229.5 225.5 229.5 225 L 227 217 C 227 216.5 227 216.5 227.5 216 C 228 216 228 216 228.5 216.5 L 231 224.5 C 230.5 225 230.5 225.5 230 225.5 Z "/>
<path style=" stroke:none;fill-rule:nonzero;fill:#472B29;fill-opacity:1;" d="M 224.5 231.5 C 224.5 231.5 224 231.5 224 231 L 219 224 C 219 223.5 219 223.5 219 223 C 219.5 223 219.5 223 220 223 L 225 230 C 225 231 225 231.5 224.5 231.5 Z "/>
<path style=" stroke:none;fill-rule:nonzero;fill:#472B29;fill-opacity:1;" d="M 214 264.5 C 213.5 264.5 213.5 264 213.5 264 C 213.5 263.5 214 263.5 214 263.5 L 222 263 C 222.5 263 222.5 263.5 222.5 263.5 C 222.5 264 222 264 222 264 Z "/>
<path style=" stroke:none;fill-rule:nonzero;fill:#472B29;fill-opacity:1;" d="M 218.5 273 C 218 273 218 273 218 272.5 C 218 272 218 272 218.5 271.5 L 226.5 269 C 227 269 227 269 227.5 269.5 C 227.5 270 227.5 270 227 270.5 L 218.5 273 C 219 273 219 273 218.5 273 Z "/>
<path style=" stroke:none;fill-rule:nonzero;fill:#472B29;fill-opacity:1;" d="M 227 280.5 C 227 280.5 226.5 280.5 226.5 280 C 226.5 279.5 226.5 279.5 227 279 L 233.5 275.5 C 234 275.5 234 275.5 234.5 276 C 234.5 276.5 234.5 276.5 234 277 L 227 280.5 C 227.5 280.5 227.5 280.5 227 280.5 Z "/>
<path style=" stroke:none;fill-rule:nonzero;fill:#472B29;fill-opacity:1;" d="M 238 285.5 C 237.5 285 237.5 284.5 237.5 284.5 L 242.5 280 C 243 280 243 280 243.5 280 C 243.5 280.5 243.5 280.5 243.5 281 L 238 285.5 C 238.5 285.5 238.5 285.5 238 285.5 Z "/>
<path style=" stroke:none;fill-rule:nonzero;fill:#472B29;fill-opacity:1;" d="M 250 288.5 C 250 288.5 249.5 288.5 250 288.5 C 249.5 288 249.5 288 249.5 287.5 L 253.5 280.5 C 253.5 280 254 280 254.5 280 C 255 280 255 280.5 255 281 L 251 288 C 250.5 288.5 250 288.5 250 288.5 Z "/>
<path style=" stroke:none;fill-rule:nonzero;fill:#472B29;fill-opacity:1;" d="M 262.5 286.5 C 262 286.5 262 286 262 286 L 262.5 278.5 C 262.5 278 263 278 263 278 C 263.5 278 263.5 278.5 263.5 278.5 L 263 286 C 263 286 263 286.5 262.5 286.5 Z "/>
<path style=" stroke:none;fill-rule:nonzero;fill:#A2A2CC;fill-opacity:1;" d="M 244.5 209.5 C 247 209 249.5 209 252 209 "/>
<path style=" stroke:none;fill-rule:nonzero;fill:#472B29;fill-opacity:1;" d="M 244.5 211 C 244 211 243.5 210.5 243 210 C 243 209.5 243.5 208.5 244 208.5 C 246.5 208 249 208 251.5 208 C 252 208 253 208.5 252.5 209.5 C 252.5 210 252 210.5 251 210.5 C 249.5 210.5 247 210.5 244.5 211 Z "/>
</g>
</svg>
