<?xml version="1.0" encoding="UTF-8"?>
<svg xmlns="http://www.w3.org/2000/svg" xmlns:xlink="http://www.w3.org/1999/xlink" width="500pt" height="500pt" viewBox="0 0 500 500" version="1.1">
<g id="surface1">
<path style=" stroke:none;fill-rule:nonzero;fill:#F1BC19;fill-opacity:1;" d="M 390 65 C 390 67.761719 387.761719 70 385 70 C 382.238281 70 380 67.761719 380 65 C 380 62.238281 382.238281 60 385 60 C 387.761719 60 390 62.238281 390 65 Z "/>
<path style=" stroke:none;fill-rule:nonzero;fill:#E6EDB7;fill-opacity:1;" d="M 435 250 C 435 352.171875 352.171875 435 250 435 C 147.828125 435 65 352.171875 65 250 C 65 147.828125 147.828125 65 250 65 C 352.171875 65 435 147.828125 435 250 Z "/>
<path style=" stroke:none;fill-rule:nonzero;fill:#F1BC19;fill-opacity:1;" d="M 435 75 C 435 86.046875 426.046875 95 415 95 C 403.953125 95 395 86.046875 395 75 C 395 63.953125 403.953125 55 415 55 C 426.046875 55 435 63.953125 435 75 Z "/>
<path style=" stroke:none;fill-rule:nonzero;fill:#88AE45;fill-opacity:1;" d="M 445 120 C 445 125.523438 440.523438 130 435 130 C 429.476563 130 425 125.523438 425 120 C 425 114.476563 429.476563 110 435 110 C 440.523438 110 445 114.476563 445 120 Z "/>
<path style=" stroke:none;fill-rule:nonzero;fill:#FBCD59;fill-opacity:1;" d="M 415 380 C 415 385.523438 410.523438 390 405 390 C 399.476563 390 395 385.523438 395 380 C 395 374.476563 399.476563 370 405 370 C 410.523438 370 415 374.476563 415 380 Z "/>
<path style=" stroke:none;fill-rule:nonzero;fill:#FBCD59;fill-opacity:1;" d="M 95 315 C 95 326.046875 86.046875 335 75 335 C 63.953125 335 55 326.046875 55 315 C 55 303.953125 63.953125 295 75 295 C 86.046875 295 95 303.953125 95 315 Z "/>
<path style=" stroke:none;fill-rule:nonzero;fill:#88AE45;fill-opacity:1;" d="M 135 435 C 135 440.523438 130.523438 445 125 445 C 119.476563 445 115 440.523438 115 435 C 115 429.476563 119.476563 425 125 425 C 130.523438 425 135 429.476563 135 435 Z "/>
<path style=" stroke:none;fill-rule:nonzero;fill:#FFFFFF;fill-opacity:1;" d="M 105 257.5 C 105 264.402344 99.402344 270 92.5 270 C 85.597656 270 80 264.402344 80 257.5 C 80 250.597656 85.597656 245 92.5 245 C 99.402344 245 105 250.597656 105 257.5 Z "/>
<path style=" stroke:none;fill-rule:nonzero;fill:#FFFFFF;fill-opacity:1;" d="M 405 167.5 C 405 171.640625 401.640625 175 397.5 175 C 393.359375 175 390 171.640625 390 167.5 C 390 163.359375 393.359375 160 397.5 160 C 401.640625 160 405 163.359375 405 167.5 Z "/>
<path style=" stroke:none;fill-rule:nonzero;fill:#FFFEF4;fill-opacity:1;" d="M 353.855469 350 L 143.019531 350 C 135.828125 350 130 344.171875 130 336.980469 L 130 163.019531 C 130 155.828125 135.828125 150 143.019531 150 L 353.855469 150 C 361.046875 150 366.875 155.828125 366.875 163.019531 L 366.875 336.980469 C 366.875 344.171875 361.046875 350 353.855469 350 Z "/>
<path style=" stroke:none;fill-rule:nonzero;fill:#D6D3C5;fill-opacity:1;" d="M 365 185 L 130 185 L 130 166.460938 C 130 157.371094 137.371094 150 146.460938 150 L 346.875 150 C 356.886719 150 365 158.113281 365 168.125 Z "/>
<path style=" stroke:none;fill-rule:nonzero;fill:#FFFEF4;fill-opacity:1;" d="M 285.34375 338.015625 L 271.710938 371.761719 L 305.453125 358.125 "/>
<path style=" stroke:none;fill-rule:nonzero;fill:#472B29;fill-opacity:1;" d="M 271.710938 375.265625 C 270.800781 375.265625 269.90625 374.910156 269.234375 374.238281 C 268.246094 373.246094 267.941406 371.753906 268.464844 370.449219 L 282.105469 336.703125 L 288.601563 339.328125 L 278.050781 365.429688 L 304.148438 354.878906 L 306.773438 361.375 L 273.03125 375.015625 C 272.601563 375.179688 272.148438 375.265625 271.710938 375.265625 Z "/>
<path style=" stroke:none;fill-rule:nonzero;fill:#EF7D99;fill-opacity:1;" d="M 370.308594 287.144531 C 366.554688 287.144531 363.039063 285.695313 360.410156 283.066406 C 357.78125 280.433594 356.328125 276.921875 356.328125 273.171875 C 356.328125 269.414063 357.78125 265.898438 360.410156 263.269531 L 371.015625 252.664063 C 373.644531 250.035156 377.160156 248.585938 380.914063 248.585938 C 384.664063 248.585938 388.179688 250.035156 390.808594 252.664063 C 393.441406 255.296875 394.890625 258.808594 394.890625 262.558594 C 394.890625 266.316406 393.441406 269.828125 390.808594 272.453125 L 380.203125 283.066406 C 377.578125 285.695313 374.058594 287.144531 370.308594 287.144531 Z "/>
<path style=" stroke:none;fill-rule:nonzero;fill:#472B29;fill-opacity:1;" d="M 380.914063 252.074219 C 383.734375 252.074219 386.371094 253.160156 388.339844 255.128906 C 392.433594 259.226563 392.433594 265.886719 388.339844 269.980469 L 377.734375 280.585938 C 375.765625 282.554688 373.128906 283.640625 370.308594 283.640625 C 367.488281 283.640625 364.855469 282.554688 362.886719 280.585938 C 358.789063 276.488281 358.789063 269.828125 362.886719 265.734375 L 373.488281 255.128906 C 375.460938 253.160156 378.101563 252.074219 380.914063 252.074219 M 380.914063 245.074219 C 376.429688 245.074219 371.945313 246.773438 368.539063 250.179688 L 357.933594 260.785156 C 351.128906 267.589844 351.128906 278.730469 357.933594 285.535156 C 361.339844 288.941406 365.824219 290.640625 370.308594 290.640625 C 374.796875 290.640625 379.28125 288.941406 382.683594 285.535156 L 393.289063 274.929688 C 400.09375 268.125 400.09375 256.984375 393.289063 250.179688 C 389.890625 246.773438 385.398438 245.074219 380.914063 245.074219 Z "/>
<path style=" stroke:none;fill-rule:nonzero;fill:#F2DF5E;fill-opacity:1;" d="M 286.867188 336.800781 L 359.699219 263.972656 L 379.496094 283.769531 L 306.664063 356.601563 Z "/>
<path style=" stroke:none;fill-rule:nonzero;fill:#472B29;fill-opacity:1;" d="M 359.703125 268.921875 L 374.554688 283.769531 L 306.671875 351.648438 L 291.820313 336.800781 L 359.703125 268.921875 M 359.703125 259.019531 L 281.921875 336.800781 L 306.671875 361.550781 L 384.449219 283.769531 Z "/>
<path style=" stroke:none;fill-rule:nonzero;fill:#88CDD7;fill-opacity:1;" d="M 354.039063 269.625 L 366.765625 256.902344 L 386.5625 276.699219 L 373.839844 289.421875 Z "/>
<path style=" stroke:none;fill-rule:nonzero;fill:#472B29;fill-opacity:1;" d="M 366.773438 261.851563 L 381.625 276.699219 L 373.84375 284.480469 L 358.996094 269.628906 L 366.773438 261.851563 M 366.773438 251.949219 L 349.09375 269.628906 L 373.84375 294.378906 L 391.523438 276.699219 Z "/>
<path style=" stroke:none;fill-rule:nonzero;fill:#472B29;fill-opacity:1;" d="M 277.5 225 L 192.5 225 C 191.121094 225 190 223.878906 190 222.5 C 190 221.121094 191.121094 220 192.5 220 L 277.5 220 C 278.878906 220 280 221.121094 280 222.5 C 280 223.878906 278.878906 225 277.5 225 Z "/>
<path style=" stroke:none;fill-rule:nonzero;fill:#472B29;fill-opacity:1;" d="M 267.5 185 L 129.375 185 C 127.996094 185 126.875 183.878906 126.875 182.5 C 126.875 181.121094 127.996094 180 129.375 180 L 267.5 180 C 268.878906 180 270 181.121094 270 182.5 C 270 183.878906 268.878906 185 267.5 185 Z "/>
<path style=" stroke:none;fill-rule:nonzero;fill:#472B29;fill-opacity:1;" d="M 327.5 225 L 297.5 225 C 296.121094 225 295 223.878906 295 222.5 C 295 221.121094 296.121094 220 297.5 220 L 327.5 220 C 328.878906 220 330 221.121094 330 222.5 C 330 223.878906 328.878906 225 327.5 225 Z "/>
<path style=" stroke:none;fill-rule:nonzero;fill:#472B29;fill-opacity:1;" d="M 312.5 185 L 282.5 185 C 281.121094 185 280 183.878906 280 182.5 C 280 181.121094 281.121094 180 282.5 180 L 312.5 180 C 313.878906 180 315 181.121094 315 182.5 C 315 183.878906 313.878906 185 312.5 185 Z "/>
<path style=" stroke:none;fill-rule:nonzero;fill:#472B29;fill-opacity:1;" d="M 342.5 185 L 327.5 185 C 326.121094 185 325 183.878906 325 182.5 C 325 181.121094 326.121094 180 327.5 180 L 342.5 180 C 343.878906 180 345 181.121094 345 182.5 C 345 183.878906 343.878906 185 342.5 185 Z "/>
<path style=" stroke:none;fill-rule:nonzero;fill:#472B29;fill-opacity:1;" d="M 327.5 270 L 232.5 270 C 231.121094 270 230 268.878906 230 267.5 C 230 266.121094 231.121094 265 232.5 265 L 327.5 265 C 328.878906 265 330 266.121094 330 267.5 C 330 268.878906 328.878906 270 327.5 270 Z "/>
<path style=" stroke:none;fill-rule:nonzero;fill:#472B29;fill-opacity:1;" d="M 217.5 270 L 192.5 270 C 191.121094 270 190 268.878906 190 267.5 C 190 266.121094 191.121094 265 192.5 265 L 217.5 265 C 218.878906 265 220 266.121094 220 267.5 C 220 268.878906 218.878906 270 217.5 270 Z "/>
<path style=" stroke:none;fill-rule:nonzero;fill:#472B29;fill-opacity:1;" d="M 292.5 310 L 192.5 310 C 191.121094 310 190 308.878906 190 307.5 C 190 306.121094 191.121094 305 192.5 305 L 292.5 305 C 293.878906 305 295 306.121094 295 307.5 C 295 308.878906 293.878906 310 292.5 310 Z "/>
<path style=" stroke:none;fill-rule:nonzero;fill:#472B29;fill-opacity:1;" d="M 162 231 C 161.339844 231 160.699219 230.734375 160.230469 230.269531 L 148.230469 218.269531 C 147.253906 217.296875 147.253906 215.710938 148.230469 214.734375 C 149.203125 213.761719 150.789063 213.761719 151.765625 214.734375 L 161.730469 224.699219 L 177.996094 203.003906 C 178.828125 201.898438 180.394531 201.679688 181.496094 202.5 C 182.601563 203.328125 182.824219 204.894531 182 206 L 164 230 C 163.566406 230.578125 162.894531 230.941406 162.175781 230.996094 C 162.121094 231 162.058594 231 162 231 Z "/>
<path style=" stroke:none;fill-rule:nonzero;fill:#472B29;fill-opacity:1;" d="M 162 276 C 161.339844 276 160.699219 275.734375 160.230469 275.269531 L 148.230469 263.269531 C 147.253906 262.296875 147.253906 260.710938 148.230469 259.734375 C 149.203125 258.761719 150.789063 258.761719 151.765625 259.734375 L 161.730469 269.699219 L 177.996094 248.003906 C 178.828125 246.898438 180.394531 246.679688 181.496094 247.5 C 182.601563 248.328125 182.824219 249.894531 182 251 L 164 275 C 163.566406 275.578125 162.894531 275.941406 162.175781 275.996094 C 162.121094 276 162.058594 276 162 276 Z "/>
<path style=" stroke:none;fill-rule:nonzero;fill:#472B29;fill-opacity:1;" d="M 162 316 C 161.339844 316 160.699219 315.734375 160.230469 315.269531 L 148.230469 303.269531 C 147.253906 302.296875 147.253906 300.710938 148.230469 299.734375 C 149.203125 298.761719 150.789063 298.761719 151.765625 299.734375 L 161.730469 309.699219 L 177.996094 288.003906 C 178.828125 286.898438 180.394531 286.675781 181.496094 287.5 C 182.601563 288.328125 182.824219 289.894531 182 291 L 164 315 C 163.566406 315.578125 162.894531 315.941406 162.175781 315.996094 C 162.121094 316 162.058594 316 162 316 Z "/>
<path style=" stroke:none;fill-rule:nonzero;fill:#472B29;fill-opacity:1;" d="M 346.714844 354.75 L 329.585938 354.75 C 327.648438 354.75 326.085938 353.183594 326.085938 351.25 C 326.085938 349.316406 327.648438 347.75 329.585938 347.75 L 346.714844 347.75 C 355.328125 347.75 362.335938 340.660156 362.335938 331.949219 L 362.335938 316.664063 C 362.335938 314.730469 363.898438 313.164063 365.835938 313.164063 C 367.769531 313.164063 369.335938 314.730469 369.335938 316.664063 L 369.335938 331.949219 C 369.335938 344.519531 359.191406 354.75 346.714844 354.75 Z "/>
<path style=" stroke:none;fill-rule:nonzero;fill:#472B29;fill-opacity:1;" d="M 253.679688 355.164063 L 148.125 355.164063 C 135.285156 355.164063 124.835938 344.695313 124.835938 331.828125 L 124.835938 168.171875 C 124.835938 155.304688 135.285156 144.835938 148.125 144.835938 L 346.039063 144.835938 C 358.886719 144.835938 369.335938 155.304688 369.335938 168.171875 L 369.335938 232.644531 C 369.335938 234.578125 367.769531 236.144531 365.835938 236.144531 C 363.898438 236.144531 362.335938 234.578125 362.335938 232.644531 L 362.335938 168.171875 C 362.335938 159.160156 355.023438 151.835938 346.039063 151.835938 L 148.125 151.835938 C 139.140625 151.835938 131.835938 159.160156 131.835938 168.171875 L 131.835938 331.828125 C 131.835938 340.839844 139.140625 348.164063 148.125 348.164063 L 253.679688 348.164063 C 255.613281 348.164063 257.179688 349.730469 257.179688 351.664063 C 257.179688 353.601563 255.613281 355.164063 253.679688 355.164063 Z "/>
</g>
</svg>
