<?xml version="1.0" encoding="UTF-8"?>
<svg xmlns="http://www.w3.org/2000/svg" xmlns:xlink="http://www.w3.org/1999/xlink" width="500pt" height="500pt" viewBox="0 0 500 500" version="1.1">
<g id="surface1">
<path style=" stroke:none;fill-rule:nonzero;fill:#F1BC19;fill-opacity:1;" d="M 390 65 C 390 67.761719 387.761719 70 385 70 C 382.238281 70 380 67.761719 380 65 C 380 62.238281 382.238281 60 385 60 C 387.761719 60 390 62.238281 390 65 Z "/>
<path style=" stroke:none;fill-rule:nonzero;fill:#E6EDB7;fill-opacity:1;" d="M 435 250 C 435 352.171875 352.171875 435 250 435 C 147.828125 435 65 352.171875 65 250 C 65 147.828125 147.828125 65 250 65 C 352.171875 65 435 147.828125 435 250 Z "/>
<path style=" stroke:none;fill-rule:nonzero;fill:#F1BC19;fill-opacity:1;" d="M 435 75 C 435 86.046875 426.046875 95 415 95 C 403.953125 95 395 86.046875 395 75 C 395 63.953125 403.953125 55 415 55 C 426.046875 55 435 63.953125 435 75 Z "/>
<path style=" stroke:none;fill-rule:nonzero;fill:#88AE45;fill-opacity:1;" d="M 445 120 C 445 125.523438 440.523438 130 435 130 C 429.476563 130 425 125.523438 425 120 C 425 114.476563 429.476563 110 435 110 C 440.523438 110 445 114.476563 445 120 Z "/>
<path style=" stroke:none;fill-rule:nonzero;fill:#FBCD59;fill-opacity:1;" d="M 415 380 C 415 385.523438 410.523438 390 405 390 C 399.476563 390 395 385.523438 395 380 C 395 374.476563 399.476563 370 405 370 C 410.523438 370 415 374.476563 415 380 Z "/>
<path style=" stroke:none;fill-rule:nonzero;fill:#FBCD59;fill-opacity:1;" d="M 95 315 C 95 326.046875 86.046875 335 75 335 C 63.953125 335 55 326.046875 55 315 C 55 303.953125 63.953125 295 75 295 C 86.046875 295 95 303.953125 95 315 Z "/>
<path style=" stroke:none;fill-rule:nonzero;fill:#88AE45;fill-opacity:1;" d="M 135 435 C 135 440.523438 130.523438 445 125 445 C 119.476563 445 115 440.523438 115 435 C 115 429.476563 119.476563 425 125 425 C 130.523438 425 135 429.476563 135 435 Z "/>
<path style=" stroke:none;fill-rule:nonzero;fill:#FFFFFF;fill-opacity:1;" d="M 105 257.5 C 105 264.402344 99.402344 270 92.5 270 C 85.597656 270 80 264.402344 80 257.5 C 80 250.597656 85.597656 245 92.5 245 C 99.402344 245 105 250.597656 105 257.5 Z "/>
<path style=" stroke:none;fill-rule:nonzero;fill:#FFFFFF;fill-opacity:1;" d="M 405 167.5 C 405 171.640625 401.640625 175 397.5 175 C 393.359375 175 390 171.640625 390 167.5 C 390 163.359375 393.359375 160 397.5 160 C 401.640625 160 405 163.359375 405 167.5 Z "/>
<path style=" stroke:none;fill-rule:nonzero;fill:#BABCE2;fill-opacity:1;" d="M 175 361.5 C 155 361.5 138.5 345 138.5 325 L 138.5 175 C 138.5 155 155 138.5 175 138.5 L 325 138.5 C 345 138.5 361.5 155 361.5 175 L 361.5 325 C 361.5 345 345 361.5 325 361.5 Z "/>
<path style=" stroke:none;fill-rule:nonzero;fill:#472B29;fill-opacity:1;" d="M 325 142 C 343 142 358 157 358 175 L 358 325 C 358 343 343 358 325 358 L 175 358 C 157 358 142 343 142 325 L 142 175 C 142 157 157 142 175 142 L 325 142 M 325 135 L 175 135 C 153 135 135 153 135 175 L 135 325 C 135 347 153 365 175 365 L 325 365 C 347 365 365 347 365 325 L 365 175 C 365 153 347 135 325 135 Z "/>
<path style=" stroke:none;fill-rule:nonzero;fill:#FDFCEE;fill-opacity:1;" d="M 342.5 239.5 L 342.5 320 C 342.5 332.5 332.5 342.5 320 342.5 L 180 342.5 C 167.5 342.5 157.5 332.5 157.5 320 L 157.5 180 C 157.5 167.5 167.5 157.5 180 157.5 L 320 157.5 C 332.5 157.5 342.5 167.5 342.5 180 L 342.5 239.5 "/>
<path style=" stroke:none;fill-rule:nonzero;fill:#472B29;fill-opacity:1;" d="M 342.5 237 C 341 237 340 236 340 234.5 L 340 215 C 340 213.5 341 212.5 342.5 212.5 C 344 212.5 345 213.5 345 215 L 345 234.5 C 345 236 344 237 342.5 237 Z "/>
<path style=" stroke:none;fill-rule:nonzero;fill:#472B29;fill-opacity:1;" d="M 342.5 202.5 C 341 202.5 340 201.5 340 200 L 340 190 C 340 188.5 341 187.5 342.5 187.5 C 344 187.5 345 188.5 345 190 L 345 200 C 345 201.5 344 202.5 342.5 202.5 Z "/>
<path style=" stroke:none;fill-rule:nonzero;fill:#472B29;fill-opacity:1;" d="M 320 345 L 180 345 C 166 345 155 334 155 320 L 155 180 C 155 166 166 155 180 155 L 307 155 C 308.5 155 309.5 156 309.5 157.5 C 309.5 159 308.5 160 307 160 L 180 160 C 169 160 160 169 160 180 L 160 320 C 160 331 169 340 180 340 L 320 340 C 331 340 340 331 340 320 L 340 248 C 340 246.5 341 245.5 342.5 245.5 C 344 245.5 345 246.5 345 248 L 345 320 C 345 334 334 345 320 345 Z "/>
<path style=" stroke:none;fill-rule:nonzero;fill:#8A8DCE;fill-opacity:1;" d="M 230 307.5 C 209.5 307.5 192.5 290.5 192.5 270 L 192.5 230 C 192.5 209.5 209.5 192.5 230 192.5 L 270 192.5 C 290.5 192.5 307.5 209.5 307.5 230 L 307.5 270 C 307.5 290.5 290.5 307.5 270 307.5 Z "/>
<path style=" stroke:none;fill-rule:nonzero;fill:#472B29;fill-opacity:1;" d="M 270 195 C 289.5 195 305 210.5 305 230 L 305 270 C 305 289.5 289.5 305 270 305 L 230 305 C 210.5 305 195 289.5 195 270 L 195 230 C 195 210.5 210.5 195 230 195 L 270 195 M 270 190 L 230 190 C 208 190 190 208 190 230 L 190 270 C 190 292 208 310 230 310 L 270 310 C 292 310 310 292 310 270 L 310 230 C 310 208 292 190 270 190 Z "/>
<path style=" stroke:none;fill-rule:nonzero;fill:#FDFCEE;fill-opacity:1;" d="M 277.5 250 C 277.5 265.1875 265.1875 277.5 250 277.5 C 234.8125 277.5 222.5 265.1875 222.5 250 C 222.5 234.8125 234.8125 222.5 250 222.5 C 265.1875 222.5 277.5 234.8125 277.5 250 Z "/>
<path style=" stroke:none;fill-rule:nonzero;fill:#472B29;fill-opacity:1;" d="M 250 225 C 264 225 275 236 275 250 C 275 264 264 275 250 275 C 236 275 225 264 225 250 C 225 236 236 225 250 225 M 250 220 C 233.5 220 220 233.5 220 250 C 220 266.5 233.5 280 250 280 C 266.5 280 280 266.5 280 250 C 280 233.5 266.5 220 250 220 Z "/>
<path style=" stroke:none;fill-rule:nonzero;fill:#FDFCEE;fill-opacity:1;" d="M 290 217.5 C 290 221.640625 286.640625 225 282.5 225 C 278.359375 225 275 221.640625 275 217.5 C 275 213.359375 278.359375 210 282.5 210 C 286.640625 210 290 213.359375 290 217.5 Z "/>
<path style=" stroke:none;fill-rule:nonzero;fill:#472B29;fill-opacity:1;" d="M 282.5 227.5 C 277 227.5 272.5 223 272.5 217.5 C 272.5 212 277 207.5 282.5 207.5 C 288 207.5 292.5 212 292.5 217.5 C 292.5 223 288 227.5 282.5 227.5 Z M 282.5 212.5 C 279.5 212.5 277.5 214.5 277.5 217.5 C 277.5 220.5 279.5 222.5 282.5 222.5 C 285.5 222.5 287.5 220.5 287.5 217.5 C 287.5 214.5 285.5 212.5 282.5 212.5 Z "/>
</g>
</svg>
