<?xml version="1.0" encoding="UTF-8"?>
<svg xmlns="http://www.w3.org/2000/svg" xmlns:xlink="http://www.w3.org/1999/xlink" width="500pt" height="500pt" viewBox="0 0 500 500" version="1.1">
<g id="surface1">
<path style=" stroke:none;fill-rule:nonzero;fill:#F1BC19;fill-opacity:1;" d="M 390 65 C 390 67.761719 387.761719 70 385 70 C 382.238281 70 380 67.761719 380 65 C 380 62.238281 382.238281 60 385 60 C 387.761719 60 390 62.238281 390 65 Z "/>
<path style=" stroke:none;fill-rule:nonzero;fill:#E6EDB7;fill-opacity:1;" d="M 435 250 C 435 352.171875 352.171875 435 250 435 C 147.828125 435 65 352.171875 65 250 C 65 147.828125 147.828125 65 250 65 C 352.171875 65 435 147.828125 435 250 Z "/>
<path style=" stroke:none;fill-rule:nonzero;fill:#F1BC19;fill-opacity:1;" d="M 435 75 C 435 86.046875 426.046875 95 415 95 C 403.953125 95 395 86.046875 395 75 C 395 63.953125 403.953125 55 415 55 C 426.046875 55 435 63.953125 435 75 Z "/>
<path style=" stroke:none;fill-rule:nonzero;fill:#88AE45;fill-opacity:1;" d="M 445 120 C 445 125.523438 440.523438 130 435 130 C 429.476563 130 425 125.523438 425 120 C 425 114.476563 429.476563 110 435 110 C 440.523438 110 445 114.476563 445 120 Z "/>
<path style=" stroke:none;fill-rule:nonzero;fill:#FBCD59;fill-opacity:1;" d="M 415 380 C 415 385.523438 410.523438 390 405 390 C 399.476563 390 395 385.523438 395 380 C 395 374.476563 399.476563 370 405 370 C 410.523438 370 415 374.476563 415 380 Z "/>
<path style=" stroke:none;fill-rule:nonzero;fill:#FBCD59;fill-opacity:1;" d="M 95 315 C 95 326.046875 86.046875 335 75 335 C 63.953125 335 55 326.046875 55 315 C 55 303.953125 63.953125 295 75 295 C 86.046875 295 95 303.953125 95 315 Z "/>
<path style=" stroke:none;fill-rule:nonzero;fill:#88AE45;fill-opacity:1;" d="M 135 435 C 135 440.523438 130.523438 445 125 445 C 119.476563 445 115 440.523438 115 435 C 115 429.476563 119.476563 425 125 425 C 130.523438 425 135 429.476563 135 435 Z "/>
<path style=" stroke:none;fill-rule:nonzero;fill:#FFFFFF;fill-opacity:1;" d="M 105 257.5 C 105 264.402344 99.402344 270 92.5 270 C 85.597656 270 80 264.402344 80 257.5 C 80 250.597656 85.597656 245 92.5 245 C 99.402344 245 105 250.597656 105 257.5 Z "/>
<path style=" stroke:none;fill-rule:nonzero;fill:#FFFFFF;fill-opacity:1;" d="M 405 167.5 C 405 171.640625 401.640625 175 397.5 175 C 393.359375 175 390 171.640625 390 167.5 C 390 163.359375 393.359375 160 397.5 160 C 401.640625 160 405 163.359375 405 167.5 Z "/>
<path style=" stroke:none;fill-rule:nonzero;fill:#472B29;fill-opacity:1;" d="M 252.5 375 C 251.121094 375 250 373.878906 250 372.5 L 250 317.5 C 250 316.121094 251.121094 315 252.5 315 C 253.878906 315 255 316.121094 255 317.5 L 255 372.5 C 255 373.878906 253.878906 375 252.5 375 Z "/>
<path style=" stroke:none;fill-rule:nonzero;fill:#FAE8E6;fill-opacity:1;" d="M 252.5 285.5 C 247 285.5 242.5 290 242.5 295.5 L 242.5 319.5 C 242.5 325 247 329.5 252.5 329.5 C 258 329.5 262.5 325 262.5 319.5 L 262.5 295.5 C 262.5 290 258 285.5 252.5 285.5 Z "/>
<path style=" stroke:none;fill-rule:nonzero;fill:#472B29;fill-opacity:1;" d="M 252.5 332 C 245.605469 332 240 326.394531 240 319.5 L 240 295.5 C 240 288.605469 245.605469 283 252.5 283 C 259.394531 283 265 288.605469 265 295.5 L 265 319.5 C 265 326.394531 259.394531 332 252.5 332 Z M 252.5 288 C 248.363281 288 245 291.363281 245 295.5 L 245 319.5 C 245 323.636719 248.363281 327 252.5 327 C 256.636719 327 260 323.636719 260 319.5 L 260 295.5 C 260 291.359375 256.636719 288 252.5 288 Z "/>
<path style=" stroke:none;fill-rule:nonzero;fill:#472B29;fill-opacity:1;" d="M 342.5 385 L 162.5 385 C 161.121094 385 160 383.878906 160 382.5 C 160 381.121094 161.121094 380 162.5 380 L 342.5 380 C 343.878906 380 345 381.121094 345 382.5 C 345 383.878906 343.878906 385 342.5 385 Z "/>
<path style=" stroke:none;fill-rule:nonzero;fill:#8F9EB6;fill-opacity:1;" d="M 267.5 377.5 C 267.5 385.785156 260.785156 392.5 252.5 392.5 C 244.214844 392.5 237.5 385.785156 237.5 377.5 C 237.5 369.214844 244.214844 362.5 252.5 362.5 C 260.785156 362.5 267.5 369.214844 267.5 377.5 Z "/>
<path style=" stroke:none;fill-rule:nonzero;fill:#472B29;fill-opacity:1;" d="M 252.5 395 C 242.851563 395 235 387.148438 235 377.5 C 235 367.851563 242.851563 360 252.5 360 C 262.148438 360 270 367.851563 270 377.5 C 270 387.148438 262.148438 395 252.5 395 Z M 252.5 365 C 245.605469 365 240 370.605469 240 377.5 C 240 384.394531 245.605469 390 252.5 390 C 259.394531 390 265 384.394531 265 377.5 C 265 370.605469 259.394531 365 252.5 365 Z "/>
<path style=" stroke:none;fill-rule:nonzero;fill:#B2BDCE;fill-opacity:1;" d="M 252.460938 311.773438 C 235.871094 304.851563 168.5 271.328125 168.5 241.980469 L 168.5 133.113281 C 168.5 130.914063 170.269531 129.125 172.433594 129.125 C 172.800781 129.125 173.164063 129.175781 173.53125 129.273438 C 180.464844 131.253906 187.761719 132.261719 195.214844 132.261719 C 218.898438 132.261719 240.109375 110.953125 250.644531 98.261719 C 251.316406 97.449219 252.164063 97.324219 252.609375 97.324219 C 253.058594 97.324219 253.910156 97.445313 254.578125 98.265625 C 265.039063 110.960938 286.121094 132.261719 309.785156 132.261719 C 317.234375 132.261719 324.535156 131.253906 331.476563 129.273438 C 331.839844 129.171875 332.203125 129.121094 332.574219 129.121094 C 334.746094 129.121094 336.503906 130.910156 336.503906 133.109375 L 336.503906 241.976563 C 336.5 273.46875 262.855469 307.195313 252.460938 311.773438 Z "/>
<path style=" stroke:none;fill-rule:nonzero;fill:#472B29;fill-opacity:1;" d="M 252.605469 101.371094 C 263.683594 114.621094 285.214844 135.761719 309.78125 135.761719 C 317.554688 135.761719 325.175781 134.710938 332.566406 132.621094 C 332.675781 132.621094 333 132.738281 333 133.109375 L 333 241.976563 C 333 266.566406 276.441406 297.726563 252.496094 307.988281 C 228.558594 297.75 172 266.613281 172 241.980469 L 172 133.113281 C 172 132.90625 172.199219 132.644531 172.53125 132.644531 C 172.546875 132.644531 172.554688 132.644531 172.570313 132.644531 C 179.816406 134.710938 187.433594 135.761719 195.214844 135.761719 C 219.78125 135.761719 241.445313 114.621094 252.605469 101.371094 M 252.605469 93.828125 C 250.886719 93.828125 249.160156 94.558594 247.949219 96.023438 C 238.921875 106.910156 217.960938 128.761719 195.214844 128.761719 C 187.894531 128.761719 180.910156 127.746094 174.488281 125.914063 C 173.800781 125.71875 173.109375 125.625 172.433594 125.625 C 168.449219 125.625 165 128.871094 165 133.113281 L 165 241.980469 C 165 278.386719 252.316406 315.574219 252.5 315.574219 C 252.675781 315.574219 340 278.386719 340 241.980469 L 340 133.109375 C 340 128.871094 336.550781 125.621094 332.566406 125.621094 C 331.890625 125.621094 331.199219 125.714844 330.511719 125.910156 C 324.085938 127.738281 317.105469 128.761719 309.78125 128.761719 C 287.054688 128.761719 266.246094 106.933594 257.28125 96.046875 C 256.066406 94.570313 254.335938 93.828125 252.605469 93.828125 Z "/>
<path style=" stroke:none;fill-rule:nonzero;fill:#D4DFF2;fill-opacity:1;" d="M 296.691406 154.210938 C 273.324219 154.210938 252.558594 125 252.558594 125 L 252.429688 125 C 252.429688 125 231.664063 154.210938 208.300781 154.210938 C 199.730469 154.210938 191.761719 152.445313 184.988281 149.445313 L 184.988281 239.535156 C 185 266.984375 252.429688 295.023438 252.5 295 C 252.570313 295.023438 320 266.988281 320 239.535156 L 320 149.445313 C 313.234375 152.445313 305.265625 154.210938 296.691406 154.210938 Z "/>
<path style=" stroke:none;fill-rule:nonzero;fill:#472B29;fill-opacity:1;" d="M 187.5 173.335938 C 186.121094 173.335938 185 172.214844 185 170.835938 L 185 149.445313 C 185 148.640625 185.386719 147.886719 186.039063 147.414063 C 186.695313 146.949219 187.539063 146.820313 188.296875 147.078125 C 208.863281 153.960938 234.421875 144.265625 250.464844 123.476563 C 251.785156 121.773438 255.003906 122.84375 255.003906 125.003906 C 255.003906 125.808594 254.644531 126.523438 254.070313 126.984375 C 237.566406 148.035156 211.78125 158.308594 190 152.789063 L 190 170.839844 C 190 172.214844 188.878906 173.335938 187.5 173.335938 Z "/>
<path style=" stroke:none;fill-rule:nonzero;fill:#472B29;fill-opacity:1;" d="M 317.5 173.335938 C 316.121094 173.335938 315 172.214844 315 170.835938 L 315 152.804688 C 294.046875 158.296875 272.140625 149.160156 263.40625 140.75 C 262.410156 139.796875 262.378906 138.210938 263.335938 137.214844 C 264.300781 136.21875 265.886719 136.199219 266.871094 137.144531 C 273.328125 143.371094 294.859375 154.5 316.695313 147.074219 C 317.464844 146.816406 318.304688 146.949219 318.953125 147.410156 C 319.609375 147.878906 320 148.640625 320 149.445313 L 320 170.835938 C 320 172.214844 318.878906 173.335938 317.5 173.335938 Z "/>
<path style=" stroke:none;fill-rule:nonzero;fill:#472B29;fill-opacity:1;" d="M 271.683594 288.210938 C 270.804688 288.210938 269.949219 287.746094 269.496094 286.914063 C 268.824219 285.710938 269.265625 284.183594 270.476563 283.519531 C 287.105469 274.339844 315 256.421875 315 239.535156 L 315 207.34375 C 315 205.964844 316.121094 204.84375 317.5 204.84375 C 318.878906 204.84375 320 205.964844 320 207.34375 L 320 239.535156 C 320 258.015625 294.386719 276.035156 272.890625 287.894531 C 272.511719 288.109375 272.09375 288.210938 271.683594 288.210938 Z "/>
<path style=" stroke:none;fill-rule:nonzero;fill:#472B29;fill-opacity:1;" d="M 253.066406 297.386719 C 249.21875 297.386719 225.691406 284.636719 213.976563 276.589844 C 194.746094 263.378906 185 250.921875 185 239.535156 L 185 200 C 185 198.621094 186.121094 197.5 187.5 197.5 C 188.878906 197.5 190 198.621094 190 200 L 190 239.535156 C 190 264.808594 251.945313 292.050781 253.386719 292.660156 C 254.03125 292.90625 254.566406 293.40625 254.835938 294.101563 C 255.328125 295.390625 254.691406 296.835938 253.398438 297.328125 C 253.308594 297.371094 253.199219 297.386719 253.066406 297.386719 Z "/>
<path style=" stroke:none;fill-rule:nonzero;fill:#472B29;fill-opacity:1;" d="M 252.5 295 C 251.121094 295 250 293.878906 250 292.5 L 250 127.5 C 250 126.121094 251.121094 125 252.5 125 C 253.878906 125 255 126.121094 255 127.5 L 255 292.5 C 255 293.878906 253.878906 295 252.5 295 Z "/>
<path style=" stroke:none;fill-rule:nonzero;fill:#472B29;fill-opacity:1;" d="M 317.5 210 L 187.710938 210 C 186.328125 210 185.210938 208.878906 185.210938 207.5 C 185.210938 206.121094 186.328125 205 187.710938 205 L 317.5 205 C 318.878906 205 320 206.121094 320 207.5 C 320 208.878906 318.878906 210 317.5 210 Z "/>
</g>
</svg>
