<?xml version="1.0" encoding="UTF-8"?>
<svg xmlns="http://www.w3.org/2000/svg" xmlns:xlink="http://www.w3.org/1999/xlink" width="64pt" height="64pt" viewBox="0 0 64 64" version="1.1">
<g id="surface1">
<path style=" stroke:none;fill-rule:nonzero;fill:#BECDE8;fill-opacity:1;" d="M 50.953125 54.007813 L 50.90625 54.019531 C 38.445313 56.726563 25.550781 56.726563 13.09375 54.019531 L 13.046875 54.007813 C 10.609375 53.476563 8.757813 51.496094 8.386719 49.035156 L 3.816406 18.5625 C 3.355469 15.484375 5.316406 12.566406 8.339844 11.839844 L 8.535156 11.789063 C 23.957031 8.070313 40.042969 8.070313 55.464844 11.789063 L 55.660156 11.839844 C 58.683594 12.566406 60.644531 15.484375 60.183594 18.5625 L 55.613281 49.035156 C 55.242188 51.5 53.390625 53.476563 50.953125 54.007813 Z "/>
<path style=" stroke:none;fill-rule:nonzero;fill:#D8E5F5;fill-opacity:1;" d="M 56.796875 16.164063 L 51.898438 21.070313 C 51.550781 19.539063 50.359375 18.269531 48.75 17.878906 L 48.609375 17.851563 C 47.800781 17.648438 46.988281 17.46875 46.179688 17.308594 C 36.011719 15.21875 25.5 15.410156 15.390625 17.851563 L 15.25 17.878906 C 13.628906 18.28125 12.429688 19.550781 12.101563 21.101563 L 7.175781 16.175781 C 5.785156 14.785156 6.367188 12.339844 8.273438 11.855469 C 8.296875 11.851563 8.316406 11.84375 8.339844 11.839844 L 8.539063 11.789063 C 23.960938 8.070313 40.039063 8.070313 55.460938 11.789063 L 55.660156 11.839844 C 55.671875 11.84375 55.6875 11.847656 55.699219 11.851563 C 57.605469 12.324219 58.183594 14.777344 56.796875 16.164063 Z "/>
<path style=" stroke:none;fill-rule:nonzero;fill:#A8B7D1;fill-opacity:1;" d="M 52.15625 49.65625 C 53.570313 51.070313 52.949219 53.5625 51.003906 54 C 50.988281 54.003906 50.972656 54.007813 50.960938 54.011719 L 50.910156 54.019531 C 38.449219 56.730469 25.550781 56.730469 13.089844 54.019531 L 13.039063 54.011719 C 12.816406 53.960938 12.59375 53.898438 12.378906 53.824219 C 10.589844 53.210938 10.117188 50.882813 11.453125 49.546875 L 15.632813 45.371094 C 15.882813 45.921875 16.25 46.398438 16.699219 46.789063 C 17.230469 47.25 17.871094 47.570313 18.582031 47.730469 L 18.621094 47.738281 C 27.441406 49.660156 36.5625 49.660156 45.382813 47.738281 L 45.421875 47.730469 C 46.609375 47.46875 47.609375 46.71875 48.199219 45.699219 Z "/>
<path style=" stroke:none;fill-rule:nonzero;fill:#8B8E98;fill-opacity:1;" d="M 51.949219 22.640625 L 48.71875 44.210938 C 48.640625 44.738281 48.460938 45.25 48.199219 45.699219 C 47.609375 46.71875 46.609375 47.46875 45.421875 47.730469 L 45.378906 47.738281 C 36.558594 49.660156 27.441406 49.660156 18.621094 47.738281 L 18.578125 47.730469 C 17.871094 47.570313 17.230469 47.25 16.699219 46.789063 C 16.25 46.398438 15.878906 45.921875 15.628906 45.371094 C 15.460938 45.011719 15.339844 44.621094 15.28125 44.210938 L 14.871094 41.5 L 13.609375 33.03125 L 12.96875 28.808594 L 12.339844 24.578125 L 12.050781 22.640625 C 11.96875 22.109375 11.988281 21.589844 12.101563 21.101563 C 12.429688 19.550781 13.628906 18.28125 15.25 17.878906 L 15.390625 17.851563 C 25.5 15.410156 36.011719 15.21875 46.179688 17.308594 C 46.988281 17.46875 47.800781 17.648438 48.609375 17.851563 L 48.75 17.878906 C 50.359375 18.269531 51.550781 19.539063 51.898438 21.070313 C 52.011719 21.570313 52.03125 22.101563 51.949219 22.640625 Z "/>
<path style=" stroke:none;fill-rule:nonzero;fill:#91949B;fill-opacity:1;" d="M 51.949219 22.640625 L 48.71875 44.210938 C 48.460938 45.960938 47.140625 47.359375 45.421875 47.730469 L 45.378906 47.738281 C 36.558594 49.660156 27.441406 49.660156 18.621094 47.738281 L 18.578125 47.730469 C 17.871094 47.570313 17.230469 47.25 16.699219 46.789063 L 46.179688 17.308594 C 46.988281 17.46875 47.800781 17.648438 48.609375 17.851563 L 48.75 17.878906 C 50.890625 18.398438 52.28125 20.460938 51.949219 22.640625 Z "/>
<path style=" stroke:none;fill-rule:nonzero;fill:#91949B;fill-opacity:1;" d="M 39.371094 17 L 14.871094 41.5 L 13.609375 33.03125 L 29.640625 17 Z "/>
<path style=" stroke:none;fill-rule:nonzero;fill:#91949B;fill-opacity:1;" d="M 24.78125 17 L 12.96875 28.808594 L 12.339844 24.578125 L 19.921875 17 Z "/>
<path style=" stroke:none;fill-rule:nonzero;fill:#8D6C9F;fill-opacity:1;" d="M 55.894531 10.867188 L 55.699219 10.820313 C 40.191406 7.078125 23.804688 7.074219 8.304688 10.820313 L 8.105469 10.867188 C 4.554688 11.722656 2.285156 15.097656 2.828125 18.710938 L 7.398438 49.183594 C 7.828125 52.039063 10.011719 54.371094 12.882813 54.996094 C 19.226563 56.375 25.617188 57.0625 32.003906 57.0625 C 38.386719 57.0625 44.769531 56.375 51.101563 54.996094 L 51.152344 54.988281 C 51.15625 54.988281 51.164063 54.984375 51.167969 54.984375 C 53.992188 54.371094 56.175781 52.039063 56.605469 49.183594 L 61.175781 18.710938 C 61.71875 15.097656 59.445313 11.726563 55.894531 10.867188 Z M 59.195313 18.414063 L 54.625 48.886719 C 54.320313 50.925781 52.757813 52.59375 50.742188 53.03125 L 50.691406 53.039063 C 38.292969 55.738281 25.710938 55.738281 13.257813 53.03125 C 11.238281 52.59375 9.679688 50.925781 9.375 48.886719 L 4.804688 18.414063 C 4.414063 15.832031 6.035156 13.425781 8.574219 12.8125 L 8.769531 12.761719 C 16.367188 10.929688 24.183594 10.011719 32 10.011719 C 39.816406 10.011719 47.632813 10.929688 55.230469 12.765625 L 55.425781 12.8125 C 57.960938 13.425781 59.582031 15.832031 59.195313 18.414063 Z "/>
<path style=" stroke:none;fill-rule:nonzero;fill:#8D6C9F;fill-opacity:1;" d="M 50.554688 17.519531 L 48.445313 17.015625 C 37.6875 14.453125 26.3125 14.453125 15.554688 17.015625 L 13.445313 17.519531 C 11.410156 18.003906 10.109375 19.929688 10.414063 21.996094 L 13.613281 43.589844 C 13.914063 45.628906 15.40625 47.253906 17.414063 47.726563 L 18.027344 47.871094 C 22.601563 48.941406 27.300781 49.480469 32 49.480469 C 36.699219 49.480469 41.402344 48.941406 45.972656 47.867188 L 46.585938 47.722656 C 48.59375 47.25 50.085938 45.628906 50.386719 43.589844 L 53.585938 21.992188 C 53.894531 19.929688 52.589844 18.003906 50.554688 17.519531 Z M 51.605469 21.703125 L 48.40625 43.296875 C 48.226563 44.519531 47.332031 45.492188 46.128906 45.777344 L 45.511719 45.921875 C 36.671875 48 27.328125 48 18.488281 45.921875 L 17.871094 45.777344 C 16.667969 45.492188 15.773438 44.519531 15.59375 43.296875 L 12.394531 21.703125 C 12.242188 20.667969 12.890625 19.707031 13.910156 19.464844 L 16.019531 18.960938 C 21.246094 17.714844 26.621094 17.09375 32 17.09375 C 37.378906 17.09375 42.757813 17.71875 47.984375 18.960938 L 50.09375 19.464844 C 51.109375 19.707031 51.761719 20.667969 51.605469 21.703125 Z "/>
<path style=" stroke:none;fill-rule:nonzero;fill:#D6EFFF;fill-opacity:1;" d="M 22 40 C 21.445313 40 21 40.445313 21 41 L 21 43 C 21 43.554688 21.445313 44 22 44 C 22.554688 44 23 43.554688 23 43 L 23 41 C 23 40.445313 22.554688 40 22 40 Z "/>
<path style=" stroke:none;fill-rule:nonzero;fill:#D6EFFF;fill-opacity:1;" d="M 27 40 C 26.445313 40 26 40.445313 26 41 L 26 43 C 26 43.554688 26.445313 44 27 44 C 27.554688 44 28 43.554688 28 43 L 28 41 C 28 40.445313 27.554688 40 27 40 Z "/>
<path style=" stroke:none;fill-rule:nonzero;fill:#D6EFFF;fill-opacity:1;" d="M 32 40 C 31.445313 40 31 40.445313 31 41 L 31 43 C 31 43.554688 31.445313 44 32 44 C 32.554688 44 33 43.554688 33 43 L 33 41 C 33 40.445313 32.554688 40 32 40 Z "/>
<path style=" stroke:none;fill-rule:nonzero;fill:#D6EFFF;fill-opacity:1;" d="M 37 40 C 36.445313 40 36 40.445313 36 41 L 36 43 C 36 43.554688 36.445313 44 37 44 C 37.554688 44 38 43.554688 38 43 L 38 41 C 38 40.445313 37.554688 40 37 40 Z "/>
<path style=" stroke:none;fill-rule:nonzero;fill:#D6EFFF;fill-opacity:1;" d="M 42 40 C 41.445313 40 41 40.445313 41 41 L 41 43 C 41 43.554688 41.445313 44 42 44 C 42.554688 44 43 43.554688 43 43 L 43 41 C 43 40.445313 42.554688 40 42 40 Z "/>
</g>
</svg>
