<?xml version="1.0" encoding="UTF-8"?>
<svg xmlns="http://www.w3.org/2000/svg" xmlns:xlink="http://www.w3.org/1999/xlink" width="64pt" height="64pt" viewBox="0 0 64 64" version="1.1">
<g id="surface1">
<path style=" stroke:none;fill-rule:nonzero;fill:#F6D397;fill-opacity:1;" d="M 54 61 L 41 61 L 41 57 L 56 57 Z "/>
<path style=" stroke:none;fill-rule:nonzero;fill:#F6D397;fill-opacity:1;" d="M 10 57 L 23 57 L 23 61 L 8 61 Z "/>
<path style=" stroke:none;fill-rule:nonzero;fill:#F6D397;fill-opacity:1;" d="M 29 49 L 35 49 L 35 55 L 29 55 Z "/>
<path style=" stroke:none;fill-rule:nonzero;fill:#C2CDE7;fill-opacity:1;" d="M 5 33 L 59 33 L 59 49 L 5 49 Z "/>
<path style=" stroke:none;fill-rule:nonzero;fill:#B5C4E0;fill-opacity:1;" d="M 59 49 L 5 49 L 5 45 C 5 42.789063 6.789063 41 9 41 L 55 41 C 57.210938 41 59 42.789063 59 45 Z "/>
<path style=" stroke:none;fill-rule:nonzero;fill:#CED8ED;fill-opacity:1;" d="M 59 33 L 5 33 L 11 3 L 53 3 Z "/>
<path style=" stroke:none;fill-rule:nonzero;fill:#DAE2EF;fill-opacity:1;" d="M 54.058594 9 L 53 3 L 11 3 L 9.941406 9 Z "/>
<path style=" stroke:none;fill-rule:nonzero;fill:#72CAAF;fill-opacity:1;" d="M 39 63 L 25 63 C 23.894531 63 23 62.105469 23 61 L 23 57 C 23 55.894531 23.894531 55 25 55 L 39 55 C 40.105469 55 41 55.894531 41 57 L 41 61 C 41 62.105469 40.105469 63 39 63 Z "/>
<path style=" stroke:none;fill-rule:nonzero;fill:#F9E3AE;fill-opacity:1;" d="M 31.988281 16.425781 C 29.519531 16.40625 27.28125 16.992188 26.601563 17.203125 C 25.910156 17.425781 25.90625 17.914063 25.890625 18.355469 C 25.859375 18.855469 25.894531 19.261719 25.878906 19.742188 C 25.863281 20.222656 25.867188 20.476563 25.726563 20.929688 C 25.605469 21.378906 25.203125 21.59375 24.882813 21.722656 C 24.558594 21.855469 21.570313 23.28125 20.355469 23.859375 C 19.382813 24.316406 19.210938 24.257813 18.648438 23.730469 C 18.484375 23.597656 18.300781 23.445313 18.105469 23.269531 C 17.503906 22.722656 17.039063 21.976563 17.015625 21.238281 C 16.984375 20.347656 16.847656 18.195313 18.910156 15.929688 C 20.976563 13.660156 24.394531 12.019531 31.988281 12 C 39.578125 12.019531 43 13.664063 45.066406 15.929688 C 47.128906 18.199219 46.992188 20.347656 46.960938 21.242188 C 46.9375 21.976563 46.472656 22.722656 45.871094 23.269531 C 45.675781 23.449219 45.492188 23.597656 45.328125 23.730469 C 44.761719 24.257813 44.59375 24.316406 43.617188 23.859375 C 42.402344 23.285156 39.414063 21.855469 39.09375 21.726563 C 38.769531 21.59375 38.371094 21.378906 38.25 20.929688 C 38.109375 20.476563 38.109375 20.222656 38.097656 19.742188 C 38.082031 19.261719 38.117188 18.855469 38.085938 18.359375 C 38.070313 17.914063 38.066406 17.425781 37.375 17.203125 C 36.691406 16.992188 34.453125 16.40625 31.988281 16.425781 Z "/>
<path style=" stroke:none;fill-rule:nonzero;fill:#72CAAF;fill-opacity:1;" d="M 15 41 C 15 42.105469 14.105469 43 13 43 C 11.894531 43 11 42.105469 11 41 C 11 39.894531 11.894531 39 13 39 C 14.105469 39 15 39.894531 15 41 Z "/>
<path style=" stroke:none;fill-rule:nonzero;fill:#72CAAF;fill-opacity:1;" d="M 23 41 C 23 42.105469 22.105469 43 21 43 C 19.894531 43 19 42.105469 19 41 C 19 39.894531 19.894531 39 21 39 C 22.105469 39 23 39.894531 23 41 Z "/>
<path style=" stroke:none;fill-rule:nonzero;fill:#72CAAF;fill-opacity:1;" d="M 31 41 C 31 42.105469 30.105469 43 29 43 C 27.894531 43 27 42.105469 27 41 C 27 39.894531 27.894531 39 29 39 C 30.105469 39 31 39.894531 31 41 Z "/>
<path style=" stroke:none;fill-rule:nonzero;fill:#ED7899;fill-opacity:1;" d="M 53 41 C 53 42.105469 52.105469 43 51 43 C 49.894531 43 49 42.105469 49 41 C 49 39.894531 49.894531 39 51 39 C 52.105469 39 53 39.894531 53 41 Z "/>
<path style=" stroke:none;fill-rule:nonzero;fill:#5DBC9D;fill-opacity:1;" d="M 23 59 L 41 59 L 41 63 L 23 63 Z "/>
<path style=" stroke:none;fill-rule:nonzero;fill:#8D6C9F;fill-opacity:1;" d="M 51 38 C 49.347656 38 48 39.347656 48 41 C 48 42.652344 49.347656 44 51 44 C 52.652344 44 54 42.652344 54 41 C 54 39.347656 52.652344 38 51 38 Z M 51 42.199219 C 50.339844 42.199219 49.800781 41.660156 49.800781 41 C 49.800781 40.339844 50.339844 39.800781 51 39.800781 C 51.660156 39.800781 52.199219 40.339844 52.199219 41 C 52.199219 41.660156 51.660156 42.199219 51 42.199219 Z "/>
<path style=" stroke:none;fill-rule:nonzero;fill:#8D6C9F;fill-opacity:1;" d="M 13 38 C 11.347656 38 10 39.347656 10 41 C 10 42.652344 11.347656 44 13 44 C 14.652344 44 16 42.652344 16 41 C 16 39.347656 14.652344 38 13 38 Z M 13 42.199219 C 12.339844 42.199219 11.800781 41.660156 11.800781 41 C 11.800781 40.339844 12.339844 39.800781 13 39.800781 C 13.660156 39.800781 14.199219 40.339844 14.199219 41 C 14.199219 41.660156 13.660156 42.199219 13 42.199219 Z "/>
<path style=" stroke:none;fill-rule:nonzero;fill:#8D6C9F;fill-opacity:1;" d="M 21 38 C 19.347656 38 18 39.347656 18 41 C 18 42.652344 19.347656 44 21 44 C 22.652344 44 24 42.652344 24 41 C 24 39.347656 22.652344 38 21 38 Z M 21 42.199219 C 20.339844 42.199219 19.800781 41.660156 19.800781 41 C 19.800781 40.339844 20.339844 39.800781 21 39.800781 C 21.660156 39.800781 22.199219 40.339844 22.199219 41 C 22.199219 41.660156 21.660156 42.199219 21 42.199219 Z "/>
<path style=" stroke:none;fill-rule:nonzero;fill:#8D6C9F;fill-opacity:1;" d="M 29 38 C 27.347656 38 26 39.347656 26 41 C 26 42.652344 27.347656 44 29 44 C 30.652344 44 32 42.652344 32 41 C 32 39.347656 30.652344 38 29 38 Z M 29 42.199219 C 28.339844 42.199219 27.800781 41.660156 27.800781 41 C 27.800781 40.339844 28.339844 39.800781 29 39.800781 C 29.660156 39.800781 30.199219 40.339844 30.199219 41 C 30.199219 41.660156 29.660156 42.199219 29 42.199219 Z "/>
<path style=" stroke:none;fill-rule:nonzero;fill:#8D6C9F;fill-opacity:1;" d="M 17.429688 24.011719 C 17.640625 24.203125 17.839844 24.363281 17.964844 24.464844 C 18.863281 25.300781 19.492188 25.367188 20.78125 24.761719 L 22.097656 24.140625 C 23.273438 23.582031 25.050781 22.738281 25.261719 22.652344 C 26.03125 22.335938 26.515625 21.84375 26.679688 21.226563 C 26.851563 20.675781 26.863281 20.320313 26.878906 19.769531 C 26.886719 19.550781 26.882813 19.34375 26.878906 19.136719 C 26.875 18.90625 26.871094 18.675781 26.890625 18.367188 C 26.890625 18.304688 26.894531 18.21875 26.898438 18.15625 C 27.164063 18.074219 29.390625 17.386719 31.980469 17.425781 L 31.996094 17.425781 C 34.457031 17.398438 36.605469 18.015625 37.074219 18.164063 C 37.082031 18.230469 37.085938 18.324219 37.089844 18.417969 C 37.105469 18.675781 37.101563 18.90625 37.097656 19.136719 C 37.09375 19.34375 37.089844 19.550781 37.097656 19.863281 C 37.113281 20.316406 37.121094 20.671875 37.28125 21.191406 C 37.460938 21.84375 37.941406 22.335938 38.710938 22.648438 C 38.921875 22.738281 40.699219 23.582031 41.878906 24.140625 L 43.191406 24.765625 C 43.761719 25.03125 44.203125 25.167969 44.589844 25.167969 C 45.078125 25.167969 45.484375 24.949219 45.953125 24.511719 C 46.132813 24.363281 46.332031 24.203125 46.542969 24.011719 C 47.414063 23.21875 47.929688 22.21875 47.960938 21.199219 C 48 20.171875 48.085938 17.761719 45.804688 15.257813 C 43.140625 12.332031 38.878906 11.019531 31.984375 11 C 25.09375 11.019531 20.835938 12.332031 18.171875 15.257813 C 15.890625 17.761719 15.976563 20.167969 16.015625 21.273438 C 16.042969 22.21875 16.5625 23.21875 17.429688 24.011719 Z M 19.648438 16.605469 C 21.164063 14.9375 23.9375 13.023438 31.984375 13 C 40.03125 13.023438 42.808594 14.9375 44.324219 16.605469 C 46.054688 18.507813 45.992188 20.277344 45.960938 21.210938 C 45.945313 21.605469 45.652344 22.113281 45.195313 22.53125 C 45.019531 22.691406 44.847656 22.832031 44.644531 23 C 44.574219 23.066406 44.523438 23.109375 44.484375 23.140625 C 44.40625 23.113281 44.273438 23.0625 44.046875 22.953125 L 42.734375 22.332031 C 40.976563 21.496094 39.710938 20.898438 39.46875 20.796875 C 39.253906 20.710938 39.210938 20.65625 39.199219 20.632813 C 39.113281 20.34375 39.105469 20.195313 39.09375 19.710938 C 39.089844 19.519531 39.089844 19.34375 39.09375 19.167969 C 39.097656 18.886719 39.101563 18.605469 39.082031 18.296875 C 39.066406 17.816406 39.023438 16.683594 37.667969 16.25 C 37.394531 16.164063 34.9375 15.425781 32.101563 15.425781 C 32.0625 15.425781 32.023438 15.425781 31.984375 15.425781 C 29.109375 15.367188 26.578125 16.160156 26.296875 16.25 C 24.945313 16.683594 24.90625 17.816406 24.890625 18.292969 C 24.867188 18.605469 24.871094 18.886719 24.878906 19.167969 C 24.878906 19.34375 24.882813 19.519531 24.878906 19.710938 L 24.875 19.8125 C 24.863281 20.199219 24.859375 20.34375 24.765625 20.652344 C 24.761719 20.65625 24.714844 20.710938 24.503906 20.796875 C 24.261719 20.898438 22.996094 21.496094 21.234375 22.332031 L 19.929688 22.953125 C 19.699219 23.058594 19.5625 23.113281 19.484375 23.140625 C 19.441406 23.105469 19.375 23.046875 19.273438 22.953125 C 19.121094 22.828125 18.953125 22.691406 18.777344 22.53125 C 18.316406 22.113281 18.023438 21.605469 18.007813 21.125 C 17.980469 20.277344 17.917969 18.507813 19.648438 16.605469 Z "/>
<path style=" stroke:none;fill-rule:nonzero;fill:#8D6C9F;fill-opacity:1;" d="M 59.824219 32.027344 L 54.300781 4.410156 C 54.023438 3.015625 52.785156 2 51.359375 2 L 12.640625 2 C 11.214844 2 9.976563 3.015625 9.699219 4.410156 L 4.175781 32.027344 C 4.058594 32.609375 4 33.203125 4 33.792969 L 4 47 C 4 48.652344 5.347656 50 7 50 L 28 50 L 28 54 L 25 54 C 23.699219 54 22.597656 54.839844 22.183594 56 L 11 56 C 10.449219 56 10 56.449219 10 57 C 10 57.550781 10.449219 58 11 58 L 22 58 L 22 60 L 9 60 C 8.449219 60 8 60.449219 8 61 C 8 61.550781 8.449219 62 9 62 L 22.183594 62 C 22.597656 63.160156 23.699219 64 25 64 L 39 64 C 40.300781 64 41.402344 63.160156 41.816406 62 L 53 62 C 53.550781 62 54 61.550781 54 61 C 54 60.449219 53.550781 60 53 60 L 42 60 L 42 58 L 55 58 C 55.550781 58 56 57.550781 56 57 C 56 56.449219 55.550781 56 55 56 L 41.816406 56 C 41.402344 54.839844 40.300781 54 39 54 L 36 54 L 36 50 L 57 50 C 58.652344 50 60 48.652344 60 47 L 60 33.792969 C 60 33.203125 59.941406 32.609375 59.824219 32.027344 Z M 11.660156 4.804688 C 11.753906 4.339844 12.164063 4 12.640625 4 L 51.359375 4 C 51.835938 4 52.246094 4.339844 52.339844 4.804688 L 57.78125 32 L 6.21875 32 Z M 39 56 C 39.550781 56 40 56.449219 40 57 L 40 61 C 40 61.550781 39.550781 62 39 62 L 25 62 C 24.449219 62 24 61.550781 24 61 L 24 57 C 24 56.449219 24.449219 56 25 56 Z M 34 54 L 30 54 L 30 50 L 34 50 Z M 57 48 L 7 48 C 6.449219 48 6 47.550781 6 47 L 6 34 L 58 34 L 58 47 C 58 47.550781 57.550781 48 57 48 Z "/>
</g>
</svg>
