<?xml version="1.0" encoding="UTF-8"?>
<svg xmlns="http://www.w3.org/2000/svg" xmlns:xlink="http://www.w3.org/1999/xlink" width="64pt" height="64pt" viewBox="0 0 64 64" version="1.1">
<g id="surface1">
<path style=" stroke:none;fill-rule:nonzero;fill:#85CBF8;fill-opacity:1;" d="M 59 31 C 59 46.464844 46.464844 59 31 59 C 15.535156 59 3 46.464844 3 31 C 3 15.535156 15.535156 3 31 3 C 46.464844 3 59 15.535156 59 31 Z "/>
<path style=" stroke:none;fill-rule:nonzero;fill:#7BBEEB;fill-opacity:1;" d="M 31 3 L 31 59 C 46.464844 59 59 46.464844 59 31 C 59 15.535156 46.464844 3 31 3 Z "/>
<path style=" stroke:none;fill-rule:nonzero;fill:#9FDDFF;fill-opacity:1;" d="M 16 31 C 16 19.949219 19.878906 10.058594 26 3.460938 C 12.707031 5.898438 3.054688 17.484375 3.054688 31 C 3.054688 44.515625 12.707031 56.101563 26 58.539063 C 19.878906 51.941406 16 42.050781 16 31 Z "/>
<path style=" stroke:none;fill-rule:nonzero;fill:#75B8E5;fill-opacity:1;" d="M 46 31 C 46 42.050781 42.121094 51.941406 36 58.539063 C 49.292969 56.101563 58.945313 44.515625 58.945313 31 C 58.945313 17.484375 49.292969 5.898438 36 3.460938 C 42.101563 10.058594 46 19.949219 46 31 Z "/>
<path style=" stroke:none;fill-rule:nonzero;fill:#8D6C9F;fill-opacity:1;" d="M 53.851563 48.828125 C 62.050781 38.359375 62.050781 23.648438 53.851563 13.179688 C 53.820313 13.140625 53.785156 13.105469 53.75 13.070313 C 48.269531 6.109375 39.90625 2.039063 31.046875 2.027344 C 22.1875 2.011719 13.8125 6.054688 8.308594 13 C 8.253906 13.046875 8.203125 13.101563 8.160156 13.160156 C -37.53125 13.140625 8.160156 13.160156 8.160156 13.230469 C -0.0234375 23.691406 -0.0234375 38.386719 8.160156 48.851563 C 8.160156 84.539063 8.160156 48.851563 8.160156 48.910156 C 8.214844 48.992188 8.28125 49.066406 8.359375 49.128906 C 13.871094 56.042969 22.238281 60.0625 31.082031 60.035156 C 39.921875 60.011719 48.269531 55.945313 53.738281 49 C 53.773438 48.96875 53.800781 48.933594 53.828125 48.898438 Z M 51.460938 13.421875 C 49.34375 14.585938 47.097656 15.507813 44.769531 16.160156 C 43.179688 11.300781 40.828125 7.398438 38 4.941406 C 43.238281 6.351563 47.925781 9.304688 51.460938 13.421875 Z M 30 4.089844 L 30 18 C 26.359375 17.949219 22.734375 17.511719 19.191406 16.691406 C 21.539063 9.589844 25.558594 4.730469 30 4.089844 Z M 32 4.089844 C 36.441406 4.730469 40.460938 9.589844 42.808594 16.679688 C 39.265625 17.503906 35.640625 17.949219 32 18 Z M 24 4.941406 C 21.210938 7.410156 18.859375 11.300781 17.269531 16.160156 C 14.941406 15.507813 12.699219 14.585938 10.578125 13.421875 C 14.101563 9.3125 18.777344 6.359375 24 4.941406 Z M 9.269531 15 C 11.601563 16.320313 14.082031 17.355469 16.660156 18.078125 C 15.964844 20.648438 15.488281 23.269531 15.238281 25.921875 C 15.1875 26.46875 15.589844 26.957031 16.140625 27.011719 L 16.238281 27.011719 C 16.753906 27.011719 17.1875 26.621094 17.238281 26.109375 C 17.484375 23.570313 17.945313 21.058594 18.621094 18.601563 C 22.351563 19.476563 26.167969 19.949219 30 20 L 30 26 C 30 26.550781 30.449219 27 31 27 C 31.550781 27 32 26.550781 32 26 L 32 20 C 35.835938 19.949219 39.65625 19.480469 43.390625 18.601563 C 44.066406 21.058594 44.527344 23.570313 44.769531 26.109375 C 44.824219 26.664063 45.3125 27.066406 45.863281 27.015625 C 46.417969 26.960938 46.824219 26.472656 46.769531 25.921875 C 46.519531 23.269531 46.042969 20.648438 45.351563 18.078125 C 47.925781 17.355469 50.402344 16.320313 52.730469 15 C 59.753906 24.511719 59.753906 37.488281 52.730469 47 C 50.402344 45.679688 47.925781 44.644531 45.351563 43.921875 C 46.042969 41.351563 46.519531 38.730469 46.769531 36.078125 C 46.824219 35.527344 46.417969 35.039063 45.863281 34.984375 C 45.3125 34.933594 44.824219 35.335938 44.769531 35.890625 C 44.527344 38.429688 44.066406 40.941406 43.390625 43.398438 C 39.65625 42.519531 35.835938 42.050781 32 42 L 32 36 C 32 35.449219 31.550781 35 31 35 C 30.449219 35 30 35.449219 30 36 L 30 42 C 26.164063 42.050781 22.34375 42.519531 18.609375 43.398438 C 17.933594 40.941406 17.472656 38.429688 17.230469 35.890625 C 17.175781 35.335938 16.6875 34.933594 16.136719 34.984375 C 15.582031 35.039063 15.175781 35.527344 15.230469 36.078125 C 15.480469 38.730469 15.957031 41.351563 16.648438 43.921875 C 14.074219 44.644531 11.597656 45.679688 9.269531 47 C 2.246094 37.488281 2.246094 24.511719 9.269531 15 Z M 30 57.910156 C 25.558594 57.269531 21.539063 52.410156 19.191406 45.320313 C 22.734375 44.496094 26.359375 44.050781 30 44 Z M 32 57.910156 L 32 44 C 35.640625 44.050781 39.265625 44.488281 42.808594 45.308594 C 40.460938 52.410156 36.441406 57.269531 32 57.910156 Z M 10.539063 48.578125 C 12.65625 47.414063 14.902344 46.492188 17.230469 45.839844 C 18.820313 50.699219 21.171875 54.601563 24 57.058594 C 18.761719 55.648438 14.074219 52.695313 10.539063 48.578125 Z M 38 57.058594 C 40.789063 54.589844 43.140625 50.699219 44.730469 45.839844 C 47.058594 46.492188 49.300781 47.414063 51.421875 48.578125 C 47.898438 52.6875 43.222656 55.640625 38 57.058594 Z "/>
<path style=" stroke:none;fill-rule:nonzero;fill:#8D6C9F;fill-opacity:1;" d="M 6 29 C 5.449219 29 5 29.449219 5 30 L 5 32 C 5 32.550781 5.449219 33 6 33 C 6.550781 33 7 32.550781 7 32 L 7 30 C 7 29.449219 6.550781 29 6 29 Z "/>
<path style=" stroke:none;fill-rule:nonzero;fill:#8D6C9F;fill-opacity:1;" d="M 11 33 C 11.550781 33 12 32.550781 12 32 L 12 30 C 12 29.449219 11.550781 29 11 29 C 10.449219 29 10 29.449219 10 30 L 10 32 C 10 32.550781 10.449219 33 11 33 Z "/>
<path style=" stroke:none;fill-rule:nonzero;fill:#8D6C9F;fill-opacity:1;" d="M 16 33 C 16.550781 33 17 32.550781 17 32 L 17 30 C 17 29.449219 16.550781 29 16 29 C 15.449219 29 15 29.449219 15 30 L 15 32 C 15 32.550781 15.449219 33 16 33 Z "/>
<path style=" stroke:none;fill-rule:nonzero;fill:#8D6C9F;fill-opacity:1;" d="M 21 33 C 21.550781 33 22 32.550781 22 32 L 22 30 C 22 29.449219 21.550781 29 21 29 C 20.449219 29 20 29.449219 20 30 L 20 32 C 20 32.550781 20.449219 33 21 33 Z "/>
<path style=" stroke:none;fill-rule:nonzero;fill:#8D6C9F;fill-opacity:1;" d="M 26 33 C 26.550781 33 27 32.550781 27 32 L 27 30 C 27 29.449219 26.550781 29 26 29 C 25.449219 29 25 29.449219 25 30 L 25 32 C 25 32.550781 25.449219 33 26 33 Z "/>
<path style=" stroke:none;fill-rule:nonzero;fill:#8D6C9F;fill-opacity:1;" d="M 31 33 C 31.550781 33 32 32.550781 32 32 L 32 30 C 32 29.449219 31.550781 29 31 29 C 30.449219 29 30 29.449219 30 30 L 30 32 C 30 32.550781 30.449219 33 31 33 Z "/>
<path style=" stroke:none;fill-rule:nonzero;fill:#8D6C9F;fill-opacity:1;" d="M 36 33 C 36.550781 33 37 32.550781 37 32 L 37 30 C 37 29.449219 36.550781 29 36 29 C 35.449219 29 35 29.449219 35 30 L 35 32 C 35 32.550781 35.449219 33 36 33 Z "/>
<path style=" stroke:none;fill-rule:nonzero;fill:#8D6C9F;fill-opacity:1;" d="M 41 33 C 41.550781 33 42 32.550781 42 32 L 42 30 C 42 29.449219 41.550781 29 41 29 C 40.449219 29 40 29.449219 40 30 L 40 32 C 40 32.550781 40.449219 33 41 33 Z "/>
<path style=" stroke:none;fill-rule:nonzero;fill:#8D6C9F;fill-opacity:1;" d="M 46 33 C 46.550781 33 47 32.550781 47 32 L 47 30 C 47 29.449219 46.550781 29 46 29 C 45.449219 29 45 29.449219 45 30 L 45 32 C 45 32.550781 45.449219 33 46 33 Z "/>
<path style=" stroke:none;fill-rule:nonzero;fill:#8D6C9F;fill-opacity:1;" d="M 51 33 C 51.550781 33 52 32.550781 52 32 L 52 30 C 52 29.449219 51.550781 29 51 29 C 50.449219 29 50 29.449219 50 30 L 50 32 C 50 32.550781 50.449219 33 51 33 Z "/>
<path style=" stroke:none;fill-rule:nonzero;fill:#8D6C9F;fill-opacity:1;" d="M 56 33 C 56.550781 33 57 32.550781 57 32 L 57 30 C 57 29.449219 56.550781 29 56 29 C 55.449219 29 55 29.449219 55 30 L 55 32 C 55 32.550781 55.449219 33 56 33 Z "/>
</g>
</svg>
