<?xml version="1.0" encoding="UTF-8"?>
<svg xmlns="http://www.w3.org/2000/svg" xmlns:xlink="http://www.w3.org/1999/xlink" width="64pt" height="64pt" viewBox="0 0 64 64" version="1.1">
<g id="surface1">
<path style=" stroke:none;fill-rule:nonzero;fill:#C2CDE7;fill-opacity:1;" d="M 7 7 L 57 7 C 58.105469 7 59 7.894531 59 9 L 59 55 C 59 56.105469 58.105469 57 57 57 L 7 57 C 5.894531 57 5 56.105469 5 55 L 5 9 C 5 7.894531 5.894531 7 7 7 Z "/>
<path style=" stroke:none;fill-rule:nonzero;fill:#ACB7D0;fill-opacity:1;" d="M 9 52 L 55 52 C 57.210938 52 59 53.789063 59 56 C 59 56.550781 58.550781 57 58 57 L 6 57 C 5.449219 57 5 56.550781 5 56 C 5 53.789063 6.789063 52 9 52 Z "/>
<path style=" stroke:none;fill-rule:nonzero;fill:#85CBF8;fill-opacity:1;" d="M 38 29 C 38 32.3125 35.3125 35 32 35 C 28.6875 35 26 32.3125 26 29 C 26 25.6875 28.6875 23 32 23 C 35.3125 23 38 25.6875 38 29 Z "/>
<path style=" stroke:none;fill-rule:nonzero;fill:#72CAAF;fill-opacity:1;" d="M 49 17 C 49 19.210938 47.210938 21 45 21 C 42.789063 21 41 19.210938 41 17 C 41 14.789063 42.789063 13 45 13 C 47.210938 13 49 14.789063 49 17 Z "/>
<path style=" stroke:none;fill-rule:nonzero;fill:#FFFFFF;fill-opacity:1;" d="M 34 44 C 34 45.105469 33.105469 46 32 46 C 30.894531 46 30 45.105469 30 44 C 30 42.894531 30.894531 42 32 42 C 33.105469 42 34 42.894531 34 44 Z "/>
<path style=" stroke:none;fill-rule:nonzero;fill:#ED7899;fill-opacity:1;" d="M 47 38 C 47 39.65625 45.65625 41 44 41 C 42.34375 41 41 39.65625 41 38 C 41 36.34375 42.34375 35 44 35 C 45.65625 35 47 36.34375 47 38 Z "/>
<path style=" stroke:none;fill-rule:nonzero;fill:#F9E3AE;fill-opacity:1;" d="M 23 17 C 23 18.65625 21.65625 20 20 20 C 18.34375 20 17 18.65625 17 17 C 17 15.34375 18.34375 14 20 14 C 21.65625 14 23 15.34375 23 17 Z "/>
<path style=" stroke:none;fill-rule:nonzero;fill:#F9E3AE;fill-opacity:1;" d="M 19 32 C 19 33.105469 18.105469 34 17 34 C 15.894531 34 15 33.105469 15 32 C 15 30.894531 15.894531 30 17 30 C 18.105469 30 19 30.894531 19 32 Z "/>
<path style=" stroke:none;fill-rule:nonzero;fill:#8D6C9F;fill-opacity:1;" d="M 14 50 C 13.449219 50 13 50.449219 13 51 L 13 53 C 13 53.550781 13.449219 54 14 54 C 14.550781 54 15 53.550781 15 53 L 15 51 C 15 50.449219 14.550781 50 14 50 Z "/>
<path style=" stroke:none;fill-rule:nonzero;fill:#8D6C9F;fill-opacity:1;" d="M 9 50 C 8.449219 50 8 50.449219 8 51 L 8 53 C 8 53.550781 8.449219 54 9 54 C 9.550781 54 10 53.550781 10 53 L 10 51 C 10 50.449219 9.550781 50 9 50 Z "/>
<path style=" stroke:none;fill-rule:nonzero;fill:#8D6C9F;fill-opacity:1;" d="M 29 50 C 28.449219 50 28 50.449219 28 51 L 28 53 C 28 53.550781 28.449219 54 29 54 C 29.550781 54 30 53.550781 30 53 L 30 51 C 30 50.449219 29.550781 50 29 50 Z "/>
<path style=" stroke:none;fill-rule:nonzero;fill:#8D6C9F;fill-opacity:1;" d="M 34 50 C 33.449219 50 33 50.449219 33 51 L 33 53 C 33 53.550781 33.449219 54 34 54 C 34.550781 54 35 53.550781 35 53 L 35 51 C 35 50.449219 34.550781 50 34 50 Z "/>
<path style=" stroke:none;fill-rule:nonzero;fill:#8D6C9F;fill-opacity:1;" d="M 39 50 C 38.449219 50 38 50.449219 38 51 L 38 53 C 38 53.550781 38.449219 54 39 54 C 39.550781 54 40 53.550781 40 53 L 40 51 C 40 50.449219 39.550781 50 39 50 Z "/>
<path style=" stroke:none;fill-rule:nonzero;fill:#8D6C9F;fill-opacity:1;" d="M 44 50 C 43.449219 50 43 50.449219 43 51 L 43 53 C 43 53.550781 43.449219 54 44 54 C 44.550781 54 45 53.550781 45 53 L 45 51 C 45 50.449219 44.550781 50 44 50 Z "/>
<path style=" stroke:none;fill-rule:nonzero;fill:#8D6C9F;fill-opacity:1;" d="M 49 50 C 48.449219 50 48 50.449219 48 51 L 48 53 C 48 53.550781 48.449219 54 49 54 C 49.550781 54 50 53.550781 50 53 L 50 51 C 50 50.449219 49.550781 50 49 50 Z "/>
<path style=" stroke:none;fill-rule:nonzero;fill:#8D6C9F;fill-opacity:1;" d="M 54 50 C 53.449219 50 53 50.449219 53 51 L 53 53 C 53 53.550781 53.449219 54 54 54 C 54.550781 54 55 53.550781 55 53 L 55 51 C 55 50.449219 54.550781 50 54 50 Z "/>
<path style=" stroke:none;fill-rule:nonzero;fill:#8D6C9F;fill-opacity:1;" d="M 19 50 C 18.449219 50 18 50.449219 18 51 L 18 53 C 18 53.550781 18.449219 54 19 54 C 19.550781 54 20 53.550781 20 53 L 20 51 C 20 50.449219 19.550781 50 19 50 Z "/>
<path style=" stroke:none;fill-rule:nonzero;fill:#8D6C9F;fill-opacity:1;" d="M 24 50 C 23.449219 50 23 50.449219 23 51 L 23 53 C 23 53.550781 23.449219 54 24 54 C 24.550781 54 25 53.550781 25 53 L 25 51 C 25 50.449219 24.550781 50 24 50 Z "/>
<path style=" stroke:none;fill-rule:nonzero;fill:#8D6C9F;fill-opacity:1;" d="M 57 6 L 7 6 C 5.34375 6 4 7.34375 4 9 L 4 55 C 4 56.65625 5.34375 58 7 58 L 57 58 C 58.65625 58 60 56.65625 60 55 L 60 9 C 60 7.34375 58.65625 6 57 6 Z M 58 55 C 58 55.550781 57.550781 56 57 56 L 7 56 C 6.449219 56 6 55.550781 6 55 L 6 9 C 6 8.449219 6.449219 8 7 8 L 57 8 C 57.550781 8 58 8.449219 58 9 Z "/>
<path style=" stroke:none;fill-rule:nonzero;fill:#8D6C9F;fill-opacity:1;" d="M 20 21 C 22.210938 21 24 19.210938 24 17 C 24 14.789063 22.210938 13 20 13 C 17.789063 13 16 14.789063 16 17 C 16 19.210938 17.789063 21 20 21 Z M 20 15 C 21.105469 15 22 15.894531 22 17 C 22 18.105469 21.105469 19 20 19 C 18.894531 19 18 18.105469 18 17 C 18 15.894531 18.894531 15 20 15 Z "/>
<path style=" stroke:none;fill-rule:nonzero;fill:#8D6C9F;fill-opacity:1;" d="M 32 41 C 30.34375 41 29 42.34375 29 44 C 29 45.65625 30.34375 47 32 47 C 33.65625 47 35 45.65625 35 44 C 35 42.34375 33.65625 41 32 41 Z M 32 45 C 31.449219 45 31 44.550781 31 44 C 31 43.449219 31.449219 43 32 43 C 32.550781 43 33 43.449219 33 44 C 33 44.550781 32.550781 45 32 45 Z "/>
<path style=" stroke:none;fill-rule:nonzero;fill:#8D6C9F;fill-opacity:1;" d="M 45 12 C 42.238281 12 40 14.238281 40 17 C 40.007813 17.921875 40.269531 18.828125 40.761719 19.609375 L 36.429688 23.609375 C 33.941406 21.582031 30.390625 21.507813 27.820313 23.429688 L 24.871094 20.480469 C 24.472656 20.140625 23.882813 20.164063 23.511719 20.53125 C 23.144531 20.902344 23.121094 21.492188 23.460938 21.890625 L 26.410156 24.839844 C 25.503906 26.039063 25.011719 27.496094 25 29 C 25 29.128906 25 29.25 25 29.378906 L 19.550781 30.46875 C 18.800781 29.21875 17.261719 28.6875 15.902344 29.207031 C 14.542969 29.730469 13.753906 31.152344 14.03125 32.585938 C 14.308594 34.015625 15.578125 35.039063 17.035156 35.007813 C 18.492188 34.980469 19.714844 33.910156 19.941406 32.46875 L 25.390625 31.378906 C 26.277344 33.816406 28.433594 35.5625 31 35.921875 L 31 39 C 31 39.550781 31.449219 40 32 40 C 32.550781 40 33 39.550781 33 39 L 33 35.921875 C 34.496094 35.695313 35.878906 34.996094 36.941406 33.921875 L 40.300781 36.441406 C 39.488281 38.339844 40.21875 40.542969 42.003906 41.582031 C 43.789063 42.621094 46.066406 42.167969 47.316406 40.523438 C 48.566406 38.882813 48.394531 36.5625 46.917969 35.121094 C 45.445313 33.679688 43.125 33.5625 41.511719 34.851563 L 38.128906 32.320313 C 39.390625 30.011719 39.25 27.191406 37.769531 25.019531 L 42.109375 21.019531 C 43.863281 22.316406 46.257813 22.328125 48.019531 21.042969 C 49.785156 19.761719 50.515625 17.484375 49.824219 15.414063 C 49.132813 13.347656 47.179688 11.964844 45 12 Z M 17 33 C 16.449219 33 16 32.550781 16 32 C 16 31.449219 16.449219 31 17 31 C 17.550781 31 18 31.449219 18 32 C 18 32.550781 17.550781 33 17 33 Z M 32 34 C 29.238281 34 27 31.761719 27 29 C 27 26.238281 29.238281 24 32 24 C 34.761719 24 37 26.238281 37 29 C 37 31.761719 34.761719 34 32 34 Z M 44 36 C 45.105469 36 46 36.894531 46 38 C 46 39.105469 45.105469 40 44 40 C 42.894531 40 42 39.105469 42 38 C 42 36.894531 42.894531 36 44 36 Z M 45 20 C 43.34375 20 42 18.65625 42 17 C 42 15.34375 43.34375 14 45 14 C 46.65625 14 48 15.34375 48 17 C 48 18.65625 46.65625 20 45 20 Z "/>
</g>
</svg>
