<?xml version="1.0" encoding="UTF-8"?>
<svg xmlns="http://www.w3.org/2000/svg" xmlns:xlink="http://www.w3.org/1999/xlink" width="64pt" height="64pt" viewBox="0 0 64 64" version="1.1">
<g id="surface1">
<path style=" stroke:none;fill-rule:nonzero;fill:#C2CDE7;fill-opacity:1;" d="M 61 13 L 61 55 C 61 56.105469 60.105469 57 59 57 L 5 57 C 3.894531 57 3 56.105469 3 55 L 3 13 C 3 12.296875 3.1875 11.609375 3.539063 11 C 3.808594 10.53125 4.167969 10.121094 4.601563 9.800781 L 9.929688 5.800781 C 10.621094 5.28125 11.464844 5 12.328125 5 L 51.671875 5 C 52.535156 5 53.378906 5.28125 54.070313 5.800781 L 59.398438 9.800781 C 59.832031 10.121094 60.191406 10.53125 60.460938 11 C 60.8125 11.609375 61 12.296875 61 13 Z "/>
<path style=" stroke:none;fill-rule:nonzero;fill:#ED7899;fill-opacity:1;" d="M 13 21 C 13 22.105469 12.105469 23 11 23 C 9.894531 23 9 22.105469 9 21 C 9 19.894531 9.894531 19 11 19 C 12.105469 19 13 19.894531 13 21 Z "/>
<path style=" stroke:none;fill-rule:nonzero;fill:#ED7899;fill-opacity:1;" d="M 13 29 C 13 30.105469 12.105469 31 11 31 C 9.894531 31 9 30.105469 9 29 C 9 27.894531 9.894531 27 11 27 C 12.105469 27 13 27.894531 13 29 Z "/>
<path style=" stroke:none;fill-rule:nonzero;fill:#CED8ED;fill-opacity:1;" d="M 60.460938 11 L 3.539063 11 C 3.808594 10.53125 4.167969 10.121094 4.601563 9.800781 L 9.929688 5.800781 C 10.621094 5.28125 11.464844 5 12.328125 5 L 51.671875 5 C 52.535156 5 53.378906 5.28125 54.070313 5.800781 L 59.398438 9.800781 C 59.832031 10.121094 60.191406 10.53125 60.460938 11 Z "/>
<path style=" stroke:none;fill-rule:nonzero;fill:#CED8ED;fill-opacity:1;" d="M 19 17 L 55 17 L 55 51 L 19 51 Z "/>
<path style=" stroke:none;fill-rule:nonzero;fill:#B5C4E0;fill-opacity:1;" d="M 23 45 L 51 45 C 53.210938 45 55 46.789063 55 49 L 55 51 L 19 51 L 19 49 C 19 46.789063 20.789063 45 23 45 Z "/>
<path style=" stroke:none;fill-rule:nonzero;fill:#DAE2EF;fill-opacity:1;" d="M 19 17 L 55 17 L 55 19 C 55 21.210938 53.210938 23 51 23 L 23 23 C 20.789063 23 19 21.210938 19 19 Z "/>
<path style=" stroke:none;fill-rule:nonzero;fill:#8D6C9F;fill-opacity:1;" d="M 60 9 L 54.671875 5 C 53.804688 4.351563 52.75 4 51.671875 4 L 12.328125 4 C 11.25 4 10.195313 4.351563 9.328125 5 L 4 9 C 2.742188 9.945313 2 11.425781 2 13 L 2 55 C 2 56.65625 3.34375 58 5 58 L 59 58 C 60.65625 58 62 56.65625 62 55 L 62 13 C 62 11.425781 61.257813 9.945313 60 9 Z M 60 55 C 60 55.550781 59.550781 56 59 56 L 5 56 C 4.449219 56 4 55.550781 4 55 L 4 13 C 4.003906 12.660156 4.0625 12.324219 4.171875 12 L 47 12 C 47.53125 12 47.96875 11.589844 48 11.058594 C 48 10.507813 47.550781 10.058594 47 10.058594 L 5.921875 10.058594 L 10.53125 6.601563 C 11.050781 6.210938 11.679688 6 12.328125 6 L 51.671875 6 C 52.320313 6 52.949219 6.210938 53.46875 6.601563 L 58.800781 10.601563 C 59.554688 11.167969 60 12.054688 60 13 Z "/>
<path style=" stroke:none;fill-rule:nonzero;fill:#8D6C9F;fill-opacity:1;" d="M 11 24 C 12.65625 24 14 22.65625 14 21 C 14 19.34375 12.65625 18 11 18 C 9.34375 18 8 19.34375 8 21 C 8 22.65625 9.34375 24 11 24 Z M 11 20 C 11.550781 20 12 20.449219 12 21 C 12 21.550781 11.550781 22 11 22 C 10.449219 22 10 21.550781 10 21 C 10 20.449219 10.449219 20 11 20 Z "/>
<path style=" stroke:none;fill-rule:nonzero;fill:#8D6C9F;fill-opacity:1;" d="M 27 23 C 27 24.105469 26.105469 25 25 25 C 23.894531 25 23 24.105469 23 23 C 23 21.894531 23.894531 21 25 21 C 26.105469 21 27 21.894531 27 23 Z "/>
<path style=" stroke:none;fill-rule:nonzero;fill:#8D6C9F;fill-opacity:1;" d="M 39 23 C 39 24.105469 38.105469 25 37 25 C 35.894531 25 35 24.105469 35 23 C 35 21.894531 35.894531 21 37 21 C 38.105469 21 39 21.894531 39 23 Z "/>
<path style=" stroke:none;fill-rule:nonzero;fill:#8D6C9F;fill-opacity:1;" d="M 51 23 C 51 24.105469 50.105469 25 49 25 C 47.894531 25 47 24.105469 47 23 C 47 21.894531 47.894531 21 49 21 C 50.105469 21 51 21.894531 51 23 Z "/>
<path style=" stroke:none;fill-rule:nonzero;fill:#8D6C9F;fill-opacity:1;" d="M 11 32 C 12.65625 32 14 30.65625 14 29 C 14 27.34375 12.65625 26 11 26 C 9.34375 26 8 27.34375 8 29 C 8 30.65625 9.34375 32 11 32 Z M 11 28 C 11.550781 28 12 28.449219 12 29 C 12 29.550781 11.550781 30 11 30 C 10.449219 30 10 29.550781 10 29 C 10 28.449219 10.449219 28 11 28 Z "/>
<path style=" stroke:none;fill-rule:nonzero;fill:#8D6C9F;fill-opacity:1;" d="M 14 44 L 8 44 C 7.449219 44 7 44.449219 7 45 C 7 45.550781 7.449219 46 8 46 L 14 46 C 14.550781 46 15 45.550781 15 45 C 15 44.449219 14.550781 44 14 44 Z "/>
<path style=" stroke:none;fill-rule:nonzero;fill:#8D6C9F;fill-opacity:1;" d="M 14 39 L 8 39 C 7.449219 39 7 39.449219 7 40 C 7 40.550781 7.449219 41 8 41 L 14 41 C 14.550781 41 15 40.550781 15 40 C 15 39.449219 14.550781 39 14 39 Z "/>
<path style=" stroke:none;fill-rule:nonzero;fill:#8D6C9F;fill-opacity:1;" d="M 26 44 L 24 44 C 23.449219 44 23 44.449219 23 45 C 23 45.550781 23.449219 46 24 46 L 26 46 C 26.550781 46 27 45.550781 27 45 C 27 44.449219 26.550781 44 26 44 Z "/>
<path style=" stroke:none;fill-rule:nonzero;fill:#8D6C9F;fill-opacity:1;" d="M 26 39 L 24 39 C 23.449219 39 23 39.449219 23 40 C 23 40.550781 23.449219 41 24 41 L 26 41 C 26.550781 41 27 40.550781 27 40 C 27 39.449219 26.550781 39 26 39 Z "/>
<path style=" stroke:none;fill-rule:nonzero;fill:#8D6C9F;fill-opacity:1;" d="M 26 34 L 24 34 C 23.449219 34 23 34.449219 23 35 C 23 35.550781 23.449219 36 24 36 L 26 36 C 26.550781 36 27 35.550781 27 35 C 27 34.449219 26.550781 34 26 34 Z "/>
<path style=" stroke:none;fill-rule:nonzero;fill:#8D6C9F;fill-opacity:1;" d="M 26 29 L 24 29 C 23.449219 29 23 29.449219 23 30 C 23 30.550781 23.449219 31 24 31 L 26 31 C 26.550781 31 27 30.550781 27 30 C 27 29.449219 26.550781 29 26 29 Z "/>
<path style=" stroke:none;fill-rule:nonzero;fill:#8D6C9F;fill-opacity:1;" d="M 38 44 L 36 44 C 35.449219 44 35 44.449219 35 45 C 35 45.550781 35.449219 46 36 46 L 38 46 C 38.550781 46 39 45.550781 39 45 C 39 44.449219 38.550781 44 38 44 Z "/>
<path style=" stroke:none;fill-rule:nonzero;fill:#8D6C9F;fill-opacity:1;" d="M 38 39 L 36 39 C 35.449219 39 35 39.449219 35 40 C 35 40.550781 35.449219 41 36 41 L 38 41 C 38.550781 41 39 40.550781 39 40 C 39 39.449219 38.550781 39 38 39 Z "/>
<path style=" stroke:none;fill-rule:nonzero;fill:#8D6C9F;fill-opacity:1;" d="M 38 34 L 36 34 C 35.449219 34 35 34.449219 35 35 C 35 35.550781 35.449219 36 36 36 L 38 36 C 38.550781 36 39 35.550781 39 35 C 39 34.449219 38.550781 34 38 34 Z "/>
<path style=" stroke:none;fill-rule:nonzero;fill:#8D6C9F;fill-opacity:1;" d="M 38 29 L 36 29 C 35.449219 29 35 29.449219 35 30 C 35 30.550781 35.449219 31 36 31 L 38 31 C 38.550781 31 39 30.550781 39 30 C 39 29.449219 38.550781 29 38 29 Z "/>
<path style=" stroke:none;fill-rule:nonzero;fill:#8D6C9F;fill-opacity:1;" d="M 50 44 L 48 44 C 47.449219 44 47 44.449219 47 45 C 47 45.550781 47.449219 46 48 46 L 50 46 C 50.550781 46 51 45.550781 51 45 C 51 44.449219 50.550781 44 50 44 Z "/>
<path style=" stroke:none;fill-rule:nonzero;fill:#8D6C9F;fill-opacity:1;" d="M 50 39 L 48 39 C 47.449219 39 47 39.449219 47 40 C 47 40.550781 47.449219 41 48 41 L 50 41 C 50.550781 41 51 40.550781 51 40 C 51 39.449219 50.550781 39 50 39 Z "/>
<path style=" stroke:none;fill-rule:nonzero;fill:#8D6C9F;fill-opacity:1;" d="M 50 34 L 48 34 C 47.449219 34 47 34.449219 47 35 C 47 35.550781 47.449219 36 48 36 L 50 36 C 50.550781 36 51 35.550781 51 35 C 51 34.449219 50.550781 34 50 34 Z "/>
<path style=" stroke:none;fill-rule:nonzero;fill:#8D6C9F;fill-opacity:1;" d="M 50 29 L 48 29 C 47.449219 29 47 29.449219 47 30 C 47 30.550781 47.449219 31 48 31 L 50 31 C 50.550781 31 51 30.550781 51 30 C 51 29.449219 50.550781 29 50 29 Z "/>
<path style=" stroke:none;fill-rule:nonzero;fill:#8D6C9F;fill-opacity:1;" d="M 55 10 L 51 10 C 50.449219 10 50 10.449219 50 11 C 50 11.550781 50.449219 12 51 12 L 55 12 C 55.550781 12 56 11.550781 56 11 C 56 10.449219 55.550781 10 55 10 Z "/>
<path style=" stroke:none;fill-rule:nonzero;fill:#8D6C9F;fill-opacity:1;" d="M 53 16 L 45 16 C 44.261719 16.003906 43.546875 16.28125 43 16.78125 C 42.453125 16.28125 41.738281 16.003906 41 16 L 33 16 C 32.261719 16.003906 31.546875 16.28125 31 16.78125 C 30.453125 16.28125 29.738281 16.003906 29 16 L 21 16 C 19.34375 16 18 17.34375 18 19 L 18 49 C 18 50.65625 19.34375 52 21 52 L 29 52 C 29.738281 51.996094 30.453125 51.71875 31 51.21875 C 31.546875 51.71875 32.261719 51.996094 33 52 L 41 52 C 41.738281 51.996094 42.453125 51.71875 43 51.21875 C 43.546875 51.71875 44.261719 51.996094 45 52 L 53 52 C 54.65625 52 56 50.65625 56 49 L 56 19 C 56 17.34375 54.65625 16 53 16 Z M 29 50 L 21 50 C 20.449219 50 20 49.550781 20 49 L 20 19 C 20 18.449219 20.449219 18 21 18 L 29 18 C 29.550781 18 30 18.449219 30 19 L 30 49 C 30 49.550781 29.550781 50 29 50 Z M 41 50 L 33 50 C 32.449219 50 32 49.550781 32 49 L 32 19 C 32 18.449219 32.449219 18 33 18 L 41 18 C 41.550781 18 42 18.449219 42 19 L 42 49 C 42 49.550781 41.550781 50 41 50 Z M 54 49 C 54 49.550781 53.550781 50 53 50 L 45 50 C 44.449219 50 44 49.550781 44 49 L 44 19 C 44 18.449219 44.449219 18 45 18 L 53 18 C 53.550781 18 54 18.449219 54 19 Z "/>
</g>
</svg>
