<?xml version="1.0" encoding="UTF-8"?>
<svg xmlns="http://www.w3.org/2000/svg" xmlns:xlink="http://www.w3.org/1999/xlink" width="64pt" height="64pt" viewBox="0 0 64 64" version="1.1">
<g id="surface1">
<path style=" stroke:none;fill-rule:nonzero;fill:#5DBC9D;fill-opacity:1;" d="M 63 17 L 63 47 C 63 48.101563 62.101563 49 61 49 L 34 49 C 33.449219 49 33 48.550781 33 48 L 33 45 C 33 43.898438 32.101563 43 31 43 L 21 43 C 19.898438 43 19 43.898438 19 45 L 19 48 C 19 48.390625 18.78125 48.730469 18.449219 48.890625 C 18.308594 48.960938 18.160156 49 18 49 L 9 49 L 9 15 L 61 15 C 62.101563 15 63 15.898438 63 17 Z "/>
<path style=" stroke:none;fill-rule:nonzero;fill:#72CAAF;fill-opacity:1;" d="M 50.621094 15 L 22.621094 43 L 21 43 C 19.898438 43 19 43.898438 19 45 L 19 46.621094 L 18.53125 47.089844 L 18.449219 48.890625 L 18.449219 49 L 10 49.191406 L 44.191406 15 Z "/>
<path style=" stroke:none;fill-rule:nonzero;fill:#72CAAF;fill-opacity:1;" d="M 63 17 L 63 24.96875 L 38.929688 49 L 34 49 C 33.449219 49 33 48.550781 33 48 L 33 45 C 33 43.898438 32.101563 43 31 43 L 28.871094 43 L 56.910156 15 L 61 15 C 62.101563 15 63 15.898438 63 17 Z "/>
<path style=" stroke:none;fill-rule:nonzero;fill:#72CAAF;fill-opacity:1;" d="M 39.910156 15 L 9.121094 45.800781 L 9.121094 40.441406 L 34.550781 15 Z "/>
<path style=" stroke:none;fill-rule:nonzero;fill:#FFEB9B;fill-opacity:1;" d="M 1 5 C 1 6.105469 1.894531 7 3 7 C 4.105469 7 5 7.894531 5 9 L 5 59 C 5 60.105469 5.894531 61 7 61 C 8.105469 61 9 60.105469 9 59 L 9 7 C 9 4.789063 7.210938 3 5 3 L 3 3 C 1.894531 3 1 3.894531 1 5 Z "/>
<path style=" stroke:none;fill-rule:nonzero;fill:#8B8E98;fill-opacity:1;" d="M 51 35 L 43 35 C 41.894531 35 41 34.105469 41 33 L 41 25 C 41 23.894531 41.894531 23 43 23 L 51 23 C 52.105469 23 53 23.894531 53 25 L 53 33 C 53 34.105469 52.105469 35 51 35 Z "/>
<path style=" stroke:none;fill-rule:nonzero;fill:#8B8E98;fill-opacity:1;" d="M 13 37 L 9 37 L 9 23 L 13 23 C 14.105469 23 15 23.894531 15 25 L 15 35 C 15 36.105469 14.105469 37 13 37 Z "/>
<path style=" stroke:none;fill-rule:nonzero;fill:#8D6C9F;fill-opacity:1;" d="M 61 14 L 10 14 L 10 7 C 10 4.242188 7.757813 2 5 2 L 3 2 C 1.347656 2 0 3.347656 0 5 C 0 6.652344 1.347656 8 3 8 C 3.550781 8 4 8.449219 4 9 L 4 59 C 4 60.652344 5.347656 62 7 62 C 8.652344 62 10 60.652344 10 59 L 10 50 L 18 50 C 19.101563 50 20 49.101563 20 48 L 20 45 C 20 44.449219 20.449219 44 21 44 L 31 44 C 31.550781 44 32 44.449219 32 45 L 32 48 C 32 49.101563 32.898438 50 34 50 L 61 50 C 62.652344 50 64 48.652344 64 47 L 64 17 C 64 15.347656 62.652344 14 61 14 Z M 8 59 C 8 59.550781 7.550781 60 7 60 C 6.449219 60 6 59.550781 6 59 L 6 9 C 6 7.347656 4.652344 6 3 6 C 2.449219 6 2 5.550781 2 5 C 2 4.449219 2.449219 4 3 4 L 5 4 C 6.652344 4 8 5.347656 8 7 Z M 10 24 L 13 24 C 13.550781 24 14 24.449219 14 25 L 14 35 C 14 35.550781 13.550781 36 13 36 L 10 36 Z M 62 47 C 62 47.550781 61.550781 48 61 48 L 34 48 L 34 45 C 34 43.347656 32.652344 42 31 42 L 21 42 C 19.347656 42 18 43.347656 18 45 L 18 48 L 10 48 L 10 38 L 13 38 C 14.652344 38 16 36.652344 16 35 L 16 25 C 16 23.347656 14.652344 22 13 22 L 10 22 L 10 16 L 61 16 C 61.550781 16 62 16.449219 62 17 Z "/>
<path style=" stroke:none;fill-rule:nonzero;fill:#FAEFDE;fill-opacity:1;" d="M 24 23 C 24 24.105469 23.105469 25 22 25 C 20.894531 25 20 24.105469 20 23 C 20 21.894531 20.894531 21 22 21 C 23.105469 21 24 21.894531 24 23 Z "/>
<path style=" stroke:none;fill-rule:nonzero;fill:#8D6C9F;fill-opacity:1;" d="M 42 43 C 41.449219 43 41 43.445313 41 44 L 41 46 C 41 46.554688 41.449219 47 42 47 C 42.550781 47 43 46.554688 43 46 L 43 44 C 43 43.445313 42.550781 43 42 43 Z "/>
<path style=" stroke:none;fill-rule:nonzero;fill:#8D6C9F;fill-opacity:1;" d="M 57 43 C 56.449219 43 56 43.445313 56 44 L 56 46 C 56 46.554688 56.449219 47 57 47 C 57.550781 47 58 46.554688 58 46 L 58 44 C 58 43.445313 57.550781 43 57 43 Z "/>
<path style=" stroke:none;fill-rule:nonzero;fill:#8D6C9F;fill-opacity:1;" d="M 52 43 C 51.449219 43 51 43.445313 51 44 L 51 46 C 51 46.554688 51.449219 47 52 47 C 52.550781 47 53 46.554688 53 46 L 53 44 C 53 43.445313 52.550781 43 52 43 Z "/>
<path style=" stroke:none;fill-rule:nonzero;fill:#8D6C9F;fill-opacity:1;" d="M 47 43 C 46.449219 43 46 43.445313 46 44 L 46 46 C 46 46.554688 46.449219 47 47 47 C 47.550781 47 48 46.554688 48 46 L 48 44 C 48 43.445313 47.550781 43 47 43 Z "/>
<path style=" stroke:none;fill-rule:nonzero;fill:#8D6C9F;fill-opacity:1;" d="M 37 43 C 36.449219 43 36 43.445313 36 44 L 36 46 C 36 46.554688 36.449219 47 37 47 C 37.550781 47 38 46.554688 38 46 L 38 44 C 38 43.445313 37.550781 43 37 43 Z "/>
<path style=" stroke:none;fill-rule:nonzero;fill:#FAEFDE;fill-opacity:1;" d="M 31 28 L 21 28 C 20.449219 28 20 28.445313 20 29 C 20 29.554688 20.449219 30 21 30 L 31 30 C 31.550781 30 32 29.554688 32 29 C 32 28.445313 31.550781 28 31 28 Z "/>
<path style=" stroke:none;fill-rule:nonzero;fill:#FAEFDE;fill-opacity:1;" d="M 27 32 L 21 32 C 20.449219 32 20 32.445313 20 33 C 20 33.554688 20.449219 34 21 34 L 27 34 C 27.550781 34 28 33.554688 28 33 C 28 32.445313 27.550781 32 27 32 Z "/>
<path style=" stroke:none;fill-rule:nonzero;fill:#8D6C9F;fill-opacity:1;" d="M 56 34 C 56.550781 34 57 33.554688 57 33 C 57 32.445313 56.550781 32 56 32 L 54 32 L 54 30 L 56 30 C 56.550781 30 57 29.554688 57 29 C 57 28.445313 56.550781 28 56 28 L 54 28 L 54 26 L 56 26 C 56.550781 26 57 25.554688 57 25 C 57 24.445313 56.550781 24 56 24 L 53.816406 24 C 53.515625 23.152344 52.847656 22.484375 52 22.183594 L 52 20 C 52 19.445313 51.550781 19 51 19 C 50.449219 19 50 19.445313 50 20 L 50 22 L 48 22 L 48 20 C 48 19.445313 47.550781 19 47 19 C 46.449219 19 46 19.445313 46 20 L 46 22 L 44 22 L 44 20 C 44 19.445313 43.550781 19 43 19 C 42.449219 19 42 19.445313 42 20 L 42 22.183594 C 41.152344 22.484375 40.484375 23.152344 40.183594 24 L 38 24 C 37.449219 24 37 24.445313 37 25 C 37 25.554688 37.449219 26 38 26 L 40 26 L 40 28 L 38 28 C 37.449219 28 37 28.445313 37 29 C 37 29.554688 37.449219 30 38 30 L 40 30 L 40 32 L 38 32 C 37.449219 32 37 32.445313 37 33 C 37 33.554688 37.449219 34 38 34 L 40.183594 34 C 40.484375 34.847656 41.152344 35.515625 42 35.816406 L 42 38 C 42 38.554688 42.449219 39 43 39 C 43.550781 39 44 38.554688 44 38 L 44 36 L 46 36 L 46 38 C 46 38.554688 46.449219 39 47 39 C 47.550781 39 48 38.554688 48 38 L 48 36 L 50 36 L 50 38 C 50 38.554688 50.449219 39 51 39 C 51.550781 39 52 38.554688 52 38 L 52 35.816406 C 52.847656 35.515625 53.515625 34.847656 53.816406 34 Z M 51 34 L 43 34 C 42.449219 34 42 33.550781 42 33 L 42 25 C 42 24.449219 42.449219 24 43 24 L 51 24 C 51.550781 24 52 24.449219 52 25 L 52 33 C 52 33.550781 51.550781 34 51 34 Z "/>
<path style=" stroke:none;fill-rule:nonzero;fill:#FAEFDE;fill-opacity:1;" d="M 47 25.496094 L 48.238281 27.761719 L 50.503906 29 L 48.238281 30.238281 L 47 32.503906 L 45.761719 30.238281 L 43.496094 29 L 45.761719 27.761719 Z "/>
</g>
</svg>
