<?xml version="1.0" encoding="UTF-8"?>
<svg xmlns="http://www.w3.org/2000/svg" xmlns:xlink="http://www.w3.org/1999/xlink" width="64pt" height="64pt" viewBox="0 0 64 64" version="1.1">
<g id="surface1">
<path style=" stroke:none;fill-rule:nonzero;fill:#CED8ED;fill-opacity:1;" d="M 58 27.601563 L 62.359375 39.300781 C 62.78125 40.421875 63 41.609375 63 42.808594 L 63 53 C 63 55.210938 61.210938 57 59 57 L 5 57 C 2.789063 57 1 55.210938 1 53 L 1 42.808594 C 1 41.609375 1.21875 40.421875 1.640625 39.300781 L 6 27.601563 C 6.585938 26.027344 8.09375 24.992188 9.769531 25 L 54.230469 25 C 55.90625 24.992188 57.414063 26.027344 58 27.601563 Z "/>
<path style=" stroke:none;fill-rule:nonzero;fill:#C2CDE7;fill-opacity:1;" d="M 1 41 L 63 41 L 63 53 C 63 55.210938 61.210938 57 59 57 L 5 57 C 2.789063 57 1 55.210938 1 53 Z "/>
<path style=" stroke:none;fill-rule:nonzero;fill:#B5C4E0;fill-opacity:1;" d="M 5 49 L 59 49 C 61.210938 49 63 50.789063 63 53 C 63 55.210938 61.210938 57 59 57 L 5 57 C 2.789063 57 1 55.210938 1 53 C 1 50.789063 2.789063 49 5 49 Z "/>
<path style=" stroke:none;fill-rule:nonzero;fill:#DAE2EF;fill-opacity:1;" d="M 59 29 L 5 29 L 9 25 L 55 25 Z "/>
<path style=" stroke:none;fill-rule:nonzero;fill:#97E0BB;fill-opacity:1;" d="M 57 49 C 57 50.105469 56.105469 51 55 51 C 53.894531 51 53 50.105469 53 49 C 53 47.894531 53.894531 47 55 47 C 56.105469 47 57 47.894531 57 49 Z "/>
<path style=" stroke:none;fill-rule:nonzero;fill:#97E0BB;fill-opacity:1;" d="M 49 49 C 49 50.105469 48.105469 51 47 51 C 45.894531 51 45 50.105469 45 49 C 45 47.894531 45.894531 47 47 47 C 48.105469 47 49 47.894531 49 49 Z "/>
<path style=" stroke:none;fill-rule:nonzero;fill:#8B8E98;fill-opacity:1;" d="M 13.441406 1 L 13.359375 1 C 12.765625 0.992188 12.199219 1.246094 11.816406 1.695313 C 11.429688 2.148438 11.261719 2.746094 11.359375 3.328125 L 15 25 L 21 25 L 15.378906 2.511719 C 15.15625 1.621094 14.355469 1 13.441406 1 Z "/>
<path style=" stroke:none;fill-rule:nonzero;fill:#8B8E98;fill-opacity:1;" d="M 50.640625 1 L 50.558594 1 C 49.644531 1 48.84375 1.621094 48.621094 2.511719 L 43 25 L 49 25 L 52.609375 3.328125 C 52.707031 2.75 52.542969 2.15625 52.164063 1.707031 C 51.785156 1.261719 51.226563 1 50.640625 1 Z "/>
<path style=" stroke:none;fill-rule:nonzero;fill:#8D6C9F;fill-opacity:1;" d="M 63.300781 39 L 58.910156 27.25 C 58.179688 25.296875 56.316406 24 54.230469 24 L 50.230469 24 L 53.601563 3.488281 C 53.746094 2.613281 53.496094 1.71875 52.914063 1.042969 C 52.335938 0.371094 51.488281 -0.0117188 50.601563 0 L 50.519531 0 C 49.144531 0 47.945313 0.9375 47.609375 2.269531 L 42.21875 24 L 21.78125 24 L 16.351563 2.269531 C 16.015625 0.9375 14.816406 0 13.441406 0 L 13.359375 0 C 12.472656 -0.0117188 11.625 0.371094 11.042969 1.042969 C 10.464844 1.71875 10.214844 2.613281 10.359375 3.488281 L 13.820313 24 L 9.820313 24 C 7.738281 24 5.871094 25.289063 5.140625 27.238281 L 0.699219 39 C 0.242188 40.21875 0.0078125 41.507813 0 42.808594 L 0 53 C 0 55.761719 2.238281 58 5 58 L 59 58 C 61.761719 58 64 55.761719 64 53 L 64 42.808594 C 63.992188 41.507813 63.757813 40.21875 63.300781 39 Z M 49.589844 2.761719 C 49.703125 2.304688 50.121094 1.984375 50.589844 2 L 50.671875 2 C 50.96875 1.996094 51.25 2.125 51.445313 2.351563 C 51.636719 2.578125 51.71875 2.875 51.671875 3.171875 L 48.148438 24 L 44.28125 24 Z M 12.371094 3.171875 C 12.320313 2.875 12.402344 2.578125 12.59375 2.351563 C 12.789063 2.125 13.074219 1.996094 13.371094 2 L 13.449219 2 C 13.921875 1.984375 14.335938 2.304688 14.449219 2.761719 L 19.71875 24 L 15.851563 24 Z M 7 27.949219 C 7.433594 26.789063 8.53125 26.015625 9.769531 26 L 54.230469 26 C 55.46875 26.015625 56.566406 26.789063 57 27.949219 L 61.390625 39.660156 C 61.390625 39.769531 61.460938 39.890625 61.5 40.011719 L 2.460938 40.011719 C 2.460938 39.890625 2.53125 39.78125 2.570313 39.660156 Z M 62 53 C 62 54.65625 60.65625 56 59 56 L 5 56 C 3.34375 56 2 54.65625 2 53 L 2 42.808594 C 2 42.535156 2 42.265625 2 42 L 62 42 C 62 42.265625 62 42.535156 62 42.808594 Z "/>
<path style=" stroke:none;fill-rule:nonzero;fill:#8D6C9F;fill-opacity:1;" d="M 7 47 C 6.449219 47 6 47.449219 6 48 L 6 50 C 6 50.550781 6.449219 51 7 51 C 7.550781 51 8 50.550781 8 50 L 8 48 C 8 47.449219 7.550781 47 7 47 Z "/>
<path style=" stroke:none;fill-rule:nonzero;fill:#8D6C9F;fill-opacity:1;" d="M 12 47 C 11.449219 47 11 47.449219 11 48 L 11 50 C 11 50.550781 11.449219 51 12 51 C 12.550781 51 13 50.550781 13 50 L 13 48 C 13 47.449219 12.550781 47 12 47 Z "/>
<path style=" stroke:none;fill-rule:nonzero;fill:#8D6C9F;fill-opacity:1;" d="M 17 47 C 16.449219 47 16 47.449219 16 48 L 16 50 C 16 50.550781 16.449219 51 17 51 C 17.550781 51 18 50.550781 18 50 L 18 48 C 18 47.449219 17.550781 47 17 47 Z "/>
<path style=" stroke:none;fill-rule:nonzero;fill:#8D6C9F;fill-opacity:1;" d="M 22 47 C 21.449219 47 21 47.449219 21 48 L 21 50 C 21 50.550781 21.449219 51 22 51 C 22.550781 51 23 50.550781 23 50 L 23 48 C 23 47.449219 22.550781 47 22 47 Z "/>
<path style=" stroke:none;fill-rule:nonzero;fill:#8D6C9F;fill-opacity:1;" d="M 27 47 C 26.449219 47 26 47.449219 26 48 L 26 50 C 26 50.550781 26.449219 51 27 51 C 27.550781 51 28 50.550781 28 50 L 28 48 C 28 47.449219 27.550781 47 27 47 Z "/>
<path style=" stroke:none;fill-rule:nonzero;fill:#8D6C9F;fill-opacity:1;" d="M 55 46 C 53.34375 46 52 47.34375 52 49 C 52 50.65625 53.34375 52 55 52 C 56.65625 52 58 50.65625 58 49 C 58 47.34375 56.65625 46 55 46 Z M 55 50 C 54.449219 50 54 49.550781 54 49 C 54 48.449219 54.449219 48 55 48 C 55.550781 48 56 48.449219 56 49 C 56 49.550781 55.550781 50 55 50 Z "/>
<path style=" stroke:none;fill-rule:nonzero;fill:#8D6C9F;fill-opacity:1;" d="M 47 46 C 45.34375 46 44 47.34375 44 49 C 44 50.65625 45.34375 52 47 52 C 48.65625 52 50 50.65625 50 49 C 50 47.34375 48.65625 46 47 46 Z M 47 50 C 46.449219 50 46 49.550781 46 49 C 46 48.449219 46.449219 48 47 48 C 47.550781 48 48 48.449219 48 49 C 48 49.550781 47.550781 50 47 50 Z "/>
<path style=" stroke:none;fill-rule:nonzero;fill:#8D6C9F;fill-opacity:1;" d="M 10 30 L 46 30 C 46.550781 30 47 29.550781 47 29 C 47 28.449219 46.550781 28 46 28 L 10 28 C 9.449219 28 9 28.449219 9 29 C 9 29.550781 9.449219 30 10 30 Z "/>
<path style=" stroke:none;fill-rule:nonzero;fill:#8D6C9F;fill-opacity:1;" d="M 50 30 L 54 30 C 54.550781 30 55 29.550781 55 29 C 55 28.449219 54.550781 28 54 28 L 50 28 C 49.449219 28 49 28.449219 49 29 C 49 29.550781 49.449219 30 50 30 Z "/>
</g>
</svg>
