<?xml version="1.0" encoding="UTF-8"?>
<svg xmlns="http://www.w3.org/2000/svg" xmlns:xlink="http://www.w3.org/1999/xlink" width="64pt" height="64pt" viewBox="0 0 64 64" version="1.1">
<g id="surface1">
<path style=" stroke:none;fill-rule:nonzero;fill:#FAEFDE;fill-opacity:1;" d="M 13 32 L 57 32 L 57 59 L 13 59 Z "/>
<path style=" stroke:none;fill-rule:nonzero;fill:#EFD8BE;fill-opacity:1;" d="M 13 33 L 57 33 L 57 37 L 13 37 Z "/>
<path style=" stroke:none;fill-rule:nonzero;fill:#EFD8BE;fill-opacity:1;" d="M 17 54 L 53 54 C 55.210938 54 57 55.789063 57 58 L 57 59 L 13 59 L 13 58 C 13 55.789063 14.789063 54 17 54 Z "/>
<path style=" stroke:none;fill-rule:nonzero;fill:#FAEFDE;fill-opacity:1;" d="M 11 29 L 59 29 L 59 33 L 11 33 Z "/>
<path style=" stroke:none;fill-rule:nonzero;fill:#CDA1A7;fill-opacity:1;" d="M 32 37 L 40 37 C 41.105469 37 42 37.894531 42 39 C 42 40.105469 41.105469 41 40 41 L 32 41 C 30.894531 41 30 40.105469 30 39 C 30 37.894531 30.894531 37 32 37 Z "/>
<path style=" stroke:none;fill-rule:nonzero;fill:#FAEFDE;fill-opacity:1;" d="M 7 8 L 51 8 L 51 29 L 7 29 Z "/>
<path style=" stroke:none;fill-rule:nonzero;fill:#EFD8BE;fill-opacity:1;" d="M 7 9 L 51 9 L 51 13 L 7 13 Z "/>
<path style=" stroke:none;fill-rule:nonzero;fill:#FFF7F0;fill-opacity:1;" d="M 11 24 L 47 24 C 49.210938 24 51 25.789063 51 28 L 51 29 L 7 29 L 7 28 C 7 25.789063 8.789063 24 11 24 Z "/>
<path style=" stroke:none;fill-rule:nonzero;fill:#FAEFDE;fill-opacity:1;" d="M 5 5 L 53 5 L 53 9 L 5 9 Z "/>
<path style=" stroke:none;fill-rule:nonzero;fill:#CDA1A7;fill-opacity:1;" d="M 26 13 L 34 13 C 35.105469 13 36 13.894531 36 15 C 36 16.105469 35.105469 17 34 17 L 26 17 C 24.894531 17 24 16.105469 24 15 C 24 13.894531 24.894531 13 26 13 Z "/>
<path style=" stroke:none;fill-rule:nonzero;fill:#8D6C9F;fill-opacity:1;" d="M 58 28.058594 L 51.820313 28.058594 C 51.9375 27.738281 51.996094 27.402344 52 27.058594 L 52 10.058594 C 53.105469 10.058594 54 9.164063 54 8.058594 L 54 6.058594 C 54 4.957031 53.105469 4.058594 52 4.058594 L 6 4.058594 C 4.894531 4.058594 4 4.957031 4 6.058594 L 4 8.058594 C 4 9.164063 4.894531 10.058594 6 10.058594 L 6 27.058594 C 6 28.71875 7.34375 30.058594 9 30.058594 L 10 30.058594 L 10 32.058594 C 10 33.164063 10.894531 34.058594 12 34.058594 L 12 57.058594 C 12 58.71875 13.34375 60.058594 15 60.058594 L 55 60.058594 C 56.65625 60.058594 58 58.71875 58 57.058594 L 58 34.058594 C 59.105469 34.058594 60 33.164063 60 32.058594 L 60 30.058594 C 60 28.957031 59.105469 28.058594 58 28.058594 Z M 9 28.058594 C 8.449219 28.058594 8 27.613281 8 27.058594 L 8 10.058594 L 37 10.058594 C 37.550781 10.058594 38 9.613281 38 9.058594 C 38 8.507813 37.550781 8.058594 37 8.058594 L 6 8.058594 L 6 6.058594 L 52 6.058594 L 52 8.058594 L 49 8.058594 C 48.449219 8.058594 48 8.507813 48 9.058594 C 48 9.613281 48.449219 10.058594 49 10.058594 L 50 10.058594 L 50 27.058594 C 50 27.613281 49.550781 28.058594 49 28.058594 Z M 56 32.058594 L 55 32.058594 C 54.449219 32.058594 54 32.507813 54 33.058594 C 54 33.613281 54.449219 34.058594 55 34.058594 L 56 34.058594 L 56 57.058594 C 56 57.613281 55.550781 58.058594 55 58.058594 L 15 58.058594 C 14.449219 58.058594 14 57.613281 14 57.058594 L 14 34.058594 L 43 34.058594 C 43.550781 34.058594 44 33.613281 44 33.058594 C 44 32.507813 43.550781 32.058594 43 32.058594 L 12 32.058594 L 12 30.058594 L 58 30.058594 L 58 32.058594 Z "/>
<path style=" stroke:none;fill-rule:nonzero;fill:#8D6C9F;fill-opacity:1;" d="M 27 52.058594 C 26.449219 52.058594 26 52.507813 26 53.058594 L 26 55.058594 C 26 55.613281 26.449219 56.058594 27 56.058594 C 27.550781 56.058594 28 55.613281 28 55.058594 L 28 53.058594 C 28 52.507813 27.550781 52.058594 27 52.058594 Z "/>
<path style=" stroke:none;fill-rule:nonzero;fill:#8D6C9F;fill-opacity:1;" d="M 22 52.058594 C 21.449219 52.058594 21 52.507813 21 53.058594 L 21 55.058594 C 21 55.613281 21.449219 56.058594 22 56.058594 C 22.550781 56.058594 23 55.613281 23 55.058594 L 23 53.058594 C 23 52.507813 22.550781 52.058594 22 52.058594 Z "/>
<path style=" stroke:none;fill-rule:nonzero;fill:#8D6C9F;fill-opacity:1;" d="M 17 52.058594 C 16.449219 52.058594 16 52.507813 16 53.058594 L 16 55.058594 C 16 55.613281 16.449219 56.058594 17 56.058594 C 17.550781 56.058594 18 55.613281 18 55.058594 L 18 53.058594 C 18 52.507813 17.550781 52.058594 17 52.058594 Z "/>
<path style=" stroke:none;fill-rule:nonzero;fill:#8D6C9F;fill-opacity:1;" d="M 32 52.058594 C 31.449219 52.058594 31 52.507813 31 53.058594 L 31 55.058594 C 31 55.613281 31.449219 56.058594 32 56.058594 C 32.550781 56.058594 33 55.613281 33 55.058594 L 33 53.058594 C 33 52.507813 32.550781 52.058594 32 52.058594 Z "/>
<path style=" stroke:none;fill-rule:nonzero;fill:#8D6C9F;fill-opacity:1;" d="M 38 52.058594 C 37.449219 52.058594 37 52.507813 37 53.058594 L 37 55.058594 C 37 55.613281 37.449219 56.058594 38 56.058594 C 38.550781 56.058594 39 55.613281 39 55.058594 L 39 53.058594 C 39 52.507813 38.550781 52.058594 38 52.058594 Z "/>
<path style=" stroke:none;fill-rule:nonzero;fill:#8D6C9F;fill-opacity:1;" d="M 43 52.058594 C 42.449219 52.058594 42 52.507813 42 53.058594 L 42 55.058594 C 42 55.613281 42.449219 56.058594 43 56.058594 C 43.550781 56.058594 44 55.613281 44 55.058594 L 44 53.058594 C 44 52.507813 43.550781 52.058594 43 52.058594 Z "/>
<path style=" stroke:none;fill-rule:nonzero;fill:#8D6C9F;fill-opacity:1;" d="M 48 52.058594 C 47.449219 52.058594 47 52.507813 47 53.058594 L 47 55.058594 C 47 55.613281 47.449219 56.058594 48 56.058594 C 48.550781 56.058594 49 55.613281 49 55.058594 L 49 53.058594 C 49 52.507813 48.550781 52.058594 48 52.058594 Z "/>
<path style=" stroke:none;fill-rule:nonzero;fill:#8D6C9F;fill-opacity:1;" d="M 53 52.058594 C 52.449219 52.058594 52 52.507813 52 53.058594 L 52 55.058594 C 52 55.613281 52.449219 56.058594 53 56.058594 C 53.550781 56.058594 54 55.613281 54 55.058594 L 54 53.058594 C 54 52.507813 53.550781 52.058594 53 52.058594 Z "/>
<path style=" stroke:none;fill-rule:nonzero;fill:#8D6C9F;fill-opacity:1;" d="M 51 32.058594 L 47 32.058594 C 46.449219 32.058594 46 32.507813 46 33.058594 C 46 33.613281 46.449219 34.058594 47 34.058594 L 51 34.058594 C 51.550781 34.058594 52 33.613281 52 33.058594 C 52 32.507813 51.550781 32.058594 51 32.058594 Z "/>
<path style=" stroke:none;fill-rule:nonzero;fill:#8D6C9F;fill-opacity:1;" d="M 43 39 C 43 37.34375 41.65625 36 40 36 L 32 36 C 30.34375 36 29 37.34375 29 39 C 29 40.65625 30.34375 42 32 42 L 40 42 C 41.65625 42 43 40.65625 43 39 Z M 40 40 L 32 40 C 31.449219 40 31 39.550781 31 39 C 31 38.449219 31.449219 38 32 38 L 40 38 C 40.550781 38 41 38.449219 41 39 C 41 39.550781 40.550781 40 40 40 Z "/>
<path style=" stroke:none;fill-rule:nonzero;fill:#8D6C9F;fill-opacity:1;" d="M 41 10.058594 L 45 10.058594 C 45.550781 10.058594 46 9.613281 46 9.058594 C 46 8.507813 45.550781 8.058594 45 8.058594 L 41 8.058594 C 40.449219 8.058594 40 8.507813 40 9.058594 C 40 9.613281 40.449219 10.058594 41 10.058594 Z "/>
<path style=" stroke:none;fill-rule:nonzero;fill:#8D6C9F;fill-opacity:1;" d="M 26 18 L 34 18 C 35.65625 18 37 16.65625 37 15 C 37 13.34375 35.65625 12 34 12 L 26 12 C 24.34375 12 23 13.34375 23 15 C 23 16.65625 24.34375 18 26 18 Z M 26 14 L 34 14 C 34.550781 14 35 14.449219 35 15 C 35 15.550781 34.550781 16 34 16 L 26 16 C 25.449219 16 25 15.550781 25 15 C 25 14.449219 25.449219 14 26 14 Z "/>
</g>
</svg>
